<svg width="557" height="523" viewBox="0 0 557 523" fill="none" xmlns="http://www.w3.org/2000/svg">
<path d="M111.503 422.072C111.617 433.732 104.717 437.871 96.1562 437.954C95.9574 437.956 95.7595 437.956 95.5625 437.953C95.1657 437.948 94.7729 437.934 94.3842 437.91C86.6529 437.439 80.608 433.218 80.5021 422.374C80.3925 411.152 94.614 396.85 95.6807 395.792L95.6826 395.791C95.7231 395.751 95.7439 395.731 95.7439 395.731C95.7439 395.731 111.389 410.413 111.503 422.072Z" fill="#CCF8EB"/>
<path d="M356.215 421.417C356.329 433.077 349.429 437.215 340.869 437.299C340.67 437.301 340.472 437.3 340.275 437.298C339.878 437.293 339.485 437.279 339.097 437.255C331.365 436.784 325.32 432.563 325.214 421.719C325.105 410.497 339.326 396.195 340.393 395.137L340.395 395.136C340.436 395.096 340.456 395.076 340.456 395.076C340.456 395.076 356.102 409.758 356.215 421.417Z" fill="#CCF8EB"/>
<path d="M557 436.46H0V437.771H557V436.46Z" fill="#3F3D56"/>
<path d="M113.499 217.553C173.647 217.553 222.406 168.852 222.406 108.777C222.406 48.7009 173.647 0 113.499 0C53.3516 0 4.59229 48.7009 4.59229 108.777C4.59229 168.852 53.3516 217.553 113.499 217.553Z" fill="#CCF8EB"/>
<path d="M246.025 339.435H246.025C272.125 339.435 297.156 349.791 315.611 368.224C334.067 386.658 344.435 411.659 344.435 437.727V437.727H190.259V395.134C190.259 380.362 196.135 366.195 206.593 355.749C217.051 345.304 231.235 339.435 246.025 339.435Z" fill="#3F3D56"/>
<path d="M459.836 209.729C459.836 209.729 464.326 268.021 458.041 269.814C451.756 271.608 429.309 285.06 393.394 281.472C393.394 281.472 358.377 300.305 363.764 282.369C369.151 264.433 393.394 268.917 393.394 268.917C393.394 268.917 436.492 259.949 438.288 253.672C440.083 247.394 432.9 221.387 435.594 220.49C438.288 219.594 459.836 209.729 459.836 209.729Z" fill="#A0616A"/>
<path d="M406.055 311.361C406.055 311.361 409.555 395.575 414.943 408.13C419.43 418.588 422.048 452.691 422.798 463.792C422.948 466.018 423.024 467.319 423.024 467.319C423.024 467.319 437.389 467.319 438.287 463.731C439.185 460.144 441.879 420.685 438.287 408.13C434.696 395.575 442.868 308.67 442.868 308.67L406.055 311.361Z" fill="#2F2E41"/>
<path d="M426.615 462.835C426.615 462.835 417.636 465.525 415.841 469.112C414.045 472.7 384.415 478.977 393.394 483.461C402.373 487.945 429.309 479.874 429.309 479.874C429.309 479.874 443.675 478.977 442.777 473.596C441.879 468.216 438.609 461.586 438.609 461.586L426.615 462.835Z" fill="#2F2E41"/>
<path d="M451.756 472.49C451.756 472.49 442.777 475.181 440.981 478.768C439.186 482.355 409.556 488.632 418.535 493.116C427.513 497.6 454.449 489.529 454.449 489.529C454.449 489.529 468.815 488.632 467.917 483.252C467.02 477.871 463.75 471.241 463.75 471.241L451.756 472.49Z" fill="#2F2E41"/>
<path d="M414.045 309.273L426.615 330.796L447.594 405.628C447.594 405.628 445.47 474.284 448.164 474.284C450.858 474.284 465.224 478.768 466.121 474.284C466.88 470.496 476.936 434.213 471.924 410.062C468.663 394.799 466.566 379.311 465.65 363.73L463.428 321.828C463.428 321.828 472.407 305.686 462.53 302.995C452.653 300.305 414.045 309.273 414.045 309.273Z" fill="#2F2E41"/>
<path d="M425.717 171.167C437.619 171.167 447.266 161.53 447.266 149.643C447.266 137.757 437.619 128.12 425.717 128.12C413.816 128.12 404.168 137.757 404.168 149.643C404.168 161.53 413.816 171.167 425.717 171.167Z" fill="#A0616A"/>
<path d="M423.024 163.992C423.024 163.992 426.615 192.69 425.718 194.483C424.82 196.277 447.266 174.754 447.266 174.754C447.266 174.754 439.186 162.198 440.981 155.921L423.024 163.992Z" fill="#A0616A"/>
<path d="M473.305 192.69C473.305 192.69 448.164 174.754 447.266 171.167L428.411 187.309L425.207 183.5C425.207 183.5 410.454 198.07 410.454 204.348C410.454 210.626 409.556 229.458 412.249 234.839C414.943 240.22 404.168 308.376 404.168 308.376C404.168 308.376 413.147 316.448 414.045 317.344C414.943 318.241 450.858 311.964 450.858 311.964C450.858 311.964 468.815 310.17 468.815 307.48C468.815 304.789 463.428 264.433 465.224 253.672C467.019 242.91 473.305 192.69 473.305 192.69Z" fill="#575A89"/>
<path d="M478.692 217.8C478.692 217.8 483.181 276.092 476.896 277.885C470.611 279.679 448.164 293.131 412.249 289.544C412.249 289.544 377.232 308.376 382.62 290.44C388.007 272.504 412.249 276.988 412.249 276.988C412.249 276.988 455.347 268.02 457.143 261.743C458.939 255.465 451.756 229.458 454.449 228.561C457.143 227.665 478.692 217.8 478.692 217.8Z" fill="#A0616A"/>
<path d="M416.513 138.892C419.458 137.845 422.708 137.307 425.711 138.175C429.962 139.403 432.906 143.125 436.081 146.203C439.256 149.282 443.709 152.009 447.89 150.562C447.638 148.752 448.114 146.916 449.213 145.455C449.759 144.91 450.162 144.24 450.387 143.502C450.566 142.35 449.595 141.355 449.304 140.226C448.794 138.246 450.192 135.536 448.473 134.426C448.02 134.134 447.445 134.067 447.002 133.758C445.265 132.544 447.194 129.527 446.045 127.747C445.701 127.288 445.254 126.915 444.74 126.66C436.408 121.804 426.219 121.791 416.574 121.913C415.231 121.93 413.361 122.596 413.74 123.883C411.917 122.576 409.53 124.411 408.061 126.105L405.054 129.572C403.641 131.079 402.407 132.746 401.379 134.537C400.46 136.292 400.257 138.99 402.085 139.755C400.726 139.186 399.077 147.228 405.343 145.905C408.984 145.136 412.553 140.299 416.513 138.892Z" fill="#2F2E41"/>
<path d="M458.939 194.483L473.305 192.69C473.305 192.69 487.671 220.49 479.59 224.974C471.509 229.458 450.858 233.046 450.858 231.252C450.858 229.458 458.939 194.483 458.939 194.483Z" fill="#575A89"/>
<path d="M262.049 200.583C262.049 200.583 266.334 214.648 263.885 218.928C261.437 223.208 268.171 232.381 279.191 228.1C290.211 223.82 290.823 218.928 290.823 218.928C290.823 218.928 286.537 212.202 285.313 198.137L262.049 200.583Z" fill="#FFB9B9"/>
<path d="M206.031 338.473C206.031 338.473 183.991 349.48 193.787 364.155C199.481 372.686 210.346 389.273 218.446 401.67C225.226 412.044 230.425 423.366 233.874 435.266L235.418 440.591L241.54 447.929L254.396 433.253C254.396 433.253 235.418 398.398 235.418 391.672C235.418 384.946 220.112 363.544 220.112 363.544L235.418 353.76C235.418 353.76 218.276 334.193 206.031 338.473Z" fill="#FFB9B9"/>
<path d="M277.661 376.385C277.661 376.385 278.273 393.506 278.885 400.233C279.39 405.782 274.478 421.32 276.181 438.605C277.221 449.789 277.096 461.049 275.81 472.207L273.375 494.401L291.741 496.236L297.864 446.094C297.864 446.094 301.537 410.628 299.7 399.01L300.313 374.55C300.313 374.55 286.844 369.659 277.661 376.385Z" fill="#FFB9B9"/>
<path d="M244.907 305.147C244.907 305.147 202.052 332.664 201.439 341.225C201.439 341.225 225.928 338.779 226.54 360.181C226.54 360.181 241.234 354.677 244.907 353.454C248.58 352.231 268.171 339.39 268.171 339.39C268.171 339.39 276.13 345.505 276.13 355.289C276.13 365.073 275.518 382.194 276.13 383.417C276.742 384.64 290.823 366.907 302.455 382.194L310.414 340.002C310.414 340.002 312.863 314.319 307.965 312.485L273.681 299.644L244.907 305.147Z" fill="#2F2E41"/>
<path d="M270.926 208.227C281.07 208.227 289.293 200.014 289.293 189.883C289.293 179.751 281.07 171.538 270.926 171.538C260.783 171.538 252.56 179.751 252.56 189.883C252.56 200.014 260.783 208.227 270.926 208.227Z" fill="#FFB9B9"/>
<path d="M266.334 221.985C266.334 221.985 287.051 227.45 289.855 217.074C289.855 217.074 315.312 221.985 319.597 238.495C323.883 255.005 309.19 294.752 309.19 295.975C309.19 297.198 321.434 304.536 315.924 308.204C310.414 311.873 305.516 307.593 307.965 312.485C310.414 317.377 314.7 318.6 311.026 319.823C307.353 321.046 285.313 302.09 268.171 306.981C251.029 311.873 242.458 308.204 242.458 308.204L234.772 241.851C234.472 239.309 234.814 236.733 235.767 234.356C236.72 231.98 238.253 229.881 240.228 228.249C244.064 225.094 249.155 221.687 254.09 220.762C263.886 218.928 264.293 217.924 264.293 217.924L266.334 221.985Z" fill="#D0CDE1"/>
<path d="M246.744 328.995C246.744 328.995 252.254 360.181 259.6 355.9C266.947 351.62 257.764 328.995 257.764 328.995H246.744Z" fill="#FFB9B9"/>
<path d="M272.319 333.031C272.319 333.031 262.772 363.228 271.267 362.825C279.763 362.421 282.091 338.118 282.091 338.118L272.319 333.031Z" fill="#FFB9B9"/>
<path d="M238.479 439.368C238.479 439.368 234.193 434.476 231.744 441.202C229.295 447.928 222.561 456.489 222.561 456.489C222.561 456.489 207.868 472.999 218.275 473.611C228.683 474.222 243.376 458.935 243.376 458.935L260.518 443.037C260.518 443.037 254.837 429.216 252.168 429.094C249.498 428.972 250.111 445.482 238.479 439.368Z" fill="#2F2E41"/>
<path d="M278.273 490.121C278.273 490.121 273.958 491.379 274.279 486.164C274.279 486.164 258.682 494.401 262.967 500.516C267.253 506.631 272.151 512.746 272.151 512.746C272.151 512.746 294.803 525.587 296.639 522.529C298.476 519.472 298.476 513.357 297.251 510.911C296.027 508.465 289.905 504.185 291.742 500.516C293.578 496.847 291.129 487.063 288.068 487.063C285.007 487.063 278.273 490.121 278.273 490.121Z" fill="#2F2E41"/>
<path d="M254.898 174.338C254.898 174.338 260.806 161.552 272.13 164.503C283.454 167.453 289.855 171.879 290.347 176.305C290.84 180.731 290.101 187.37 290.101 187.37C290.101 187.37 288.87 178.272 280.993 180.239C273.115 182.207 260.806 180.731 260.806 180.731L258.836 198.435C258.836 198.435 256.621 195.238 254.159 197.206C251.697 199.173 247.02 178.272 254.898 174.338Z" fill="#2F2E41"/>
<path d="M309.19 237.884C309.19 237.884 294.496 277.63 295.721 282.522C296.945 287.414 295.721 288.025 293.884 289.248C292.048 290.471 287.15 303.313 287.15 303.313C287.15 303.313 284.089 310.65 281.64 312.485C279.191 314.319 279.191 319.211 279.191 319.211C279.191 319.211 273.069 325.326 274.293 326.549C275.518 327.772 275.518 329.606 273.069 331.441C270.62 333.275 268.171 335.721 269.395 336.333C270.62 336.944 279.191 343.67 281.64 343.059C284.089 342.448 280.415 340.002 283.476 338.779C286.538 337.556 288.374 335.721 287.15 335.11C285.925 334.498 282.252 334.498 285.925 333.275C289.599 332.052 302.455 324.103 306.741 314.319C311.026 304.536 331.559 245.342 319.15 237.027C319.15 237.027 314.087 230.546 309.19 237.884Z" fill="#D0CDE1"/>
<path d="M241.234 231.158L240.985 231.261C238.672 232.224 236.63 233.736 235.034 235.665C233.438 237.595 232.337 239.883 231.826 242.333C230.489 248.724 229.174 257.968 230.214 266.624C232.05 281.911 233.275 288.637 235.724 293.529C238.173 298.421 238.785 296.586 238.172 300.255C237.56 303.924 234.499 300.867 237.56 305.759C240.621 310.651 242.458 309.428 241.234 311.873C240.009 314.319 238.173 314.319 240.621 317.377C243.07 320.434 243.07 321.657 243.682 322.88C244.295 324.103 246.131 333.275 246.131 333.275C246.131 333.275 255.927 330.218 261.437 331.441C261.437 331.441 256.539 322.88 257.763 321.046C258.988 319.211 260.824 318.6 258.988 316.765C257.151 314.931 254.09 315.542 257.151 313.708C260.212 311.873 254.702 292.918 254.702 292.918L241.234 231.158Z" fill="#D0CDE1"/>
<path d="M123.997 436.417H101.69L111.859 92.3945L123.997 436.417Z" fill="#3F3D56"/>
<path d="M113.827 157.595L137.774 124.503L113.499 165.786L110.875 161.199L113.827 157.595Z" fill="#3F3D56"/>
<path d="M111.203 191.014L87.2568 157.923L111.531 199.205L114.156 194.618L111.203 191.014Z" fill="#3F3D56"/>
<path d="M123.49 257.473L112.694 263.698L115.975 269.373L126.77 263.148L123.49 257.473Z" fill="#3F3D56"/>
</svg>
