<svg width="59" height="66" viewBox="0 0 59 66" fill="none" xmlns="http://www.w3.org/2000/svg">
<path d="M44.1399 47.3354C37.8995 60.718 27.7279 61.6633 17.8667 57.065C17.6383 56.9585 17.4114 56.8487 17.1869 56.7381C16.7347 56.5152 16.291 56.2825 15.8585 56.043C7.25074 51.2665 2.62844 43.13 8.4319 30.6845C14.4367 17.8072 38.5492 9.2661 40.3569 8.64162C40.3569 8.6414 40.3571 8.64121 40.3573 8.64104C40.3574 8.64088 40.3576 8.64075 40.3579 8.64067C40.3581 8.64059 40.3583 8.64056 40.3586 8.64057C40.3588 8.64058 40.359 8.64065 40.3593 8.64075C40.429 8.61555 40.4644 8.60414 40.4644 8.60414C40.4644 8.60414 50.3796 33.9544 44.1399 47.3354Z" fill="#CCF8EB"/>
<path d="M18.164 54.8846L28.797 48.7867L17.6826 55.8748L17.1807 56.9093C16.7377 56.6907 16.3032 56.4623 15.8798 56.227L22.8127 43.1585L22.8566 43.0515L22.8763 43.0388L23.5327 41.8035L21.8136 28.7013L23.9944 40.8638L23.8854 41.1396L29.123 31.2653L28.4868 18.2578L30.0182 29.5221L40.3421 8.79891L40.3773 8.7277L40.3445 8.79803L32.5415 25.2962L41.0799 21.2943L31.8546 26.7104L27.4857 35.7013L36.6579 29.3943L26.8431 37.0246L24.4141 42.0234L37.484 33.3858L23.566 43.7666L18.164 54.8846Z" fill="#3F3D56"/>
</svg>
