<svg width="133" height="219" viewBox="0 0 133 219" fill="none" xmlns="http://www.w3.org/2000/svg">
<path d="M66.5005 131.001C58.1617 130.992 50.1671 127.68 44.2706 121.793C38.3742 115.905 35.0574 107.923 35.0479 99.5968V31.4044C35.0479 23.0754 38.3616 15.0876 44.2601 9.19815C50.1586 3.30868 58.1588 0 66.5005 0C74.8423 0 82.8423 3.30868 88.7409 9.19815C94.6394 15.0876 97.9532 23.0754 97.9532 31.4044V99.5968C97.9437 107.923 94.6268 115.905 88.7303 121.793C82.8339 127.68 74.8394 130.992 66.5005 131.001V131.001Z" fill="white"/>
<path d="M66.5 157.022C48.8692 157.002 31.9663 150 19.4994 137.552C7.03258 125.105 0.0199413 108.228 0 90.6241C0 89.1963 0.568041 87.8269 1.57922 86.8173C2.59039 85.8077 3.96187 85.2405 5.39189 85.2405C6.82191 85.2405 8.19328 85.8077 9.20446 86.8173C10.2156 87.8269 10.7838 89.1963 10.7838 90.6241C10.7838 105.378 16.6538 119.528 27.1026 129.961C37.5514 140.394 51.7231 146.255 66.5 146.255C81.2769 146.255 95.4485 140.394 105.897 129.961C116.346 119.528 122.216 105.378 122.216 90.6241C122.216 89.1963 122.784 87.8269 123.795 86.8173C124.807 85.8077 126.178 85.2405 127.608 85.2405C129.038 85.2405 130.409 85.8077 131.421 86.8173C132.432 87.8269 133 89.1963 133 90.6241C132.98 108.228 125.967 125.105 113.501 137.552C101.034 150 84.1308 157.002 66.5 157.022V157.022Z" fill="white"/>
<path d="M66.5003 218.036C65.0703 218.036 63.6989 217.469 62.6877 216.459C61.6766 215.45 61.1085 214.08 61.1084 212.653V153.433C61.1084 152.005 61.6764 150.636 62.6876 149.626C63.6988 148.616 65.0703 148.049 66.5003 148.049C67.9303 148.049 69.3017 148.616 70.3129 149.626C71.3241 150.636 71.8922 152.005 71.8922 153.433V212.653C71.8921 214.08 71.324 215.45 70.3129 216.459C69.3017 217.469 67.9303 218.036 66.5003 218.036V218.036Z" fill="white"/>
<path d="M53.9193 24.2262C55.9045 24.2262 57.5139 22.6194 57.5139 20.6372C57.5139 18.655 55.9045 17.0481 53.9193 17.0481C51.9341 17.0481 50.3247 18.655 50.3247 20.6372C50.3247 22.6194 51.9341 24.2262 53.9193 24.2262Z" fill="white"/>
<path d="M53.9193 58.3225C55.9045 58.3225 57.5139 56.7156 57.5139 54.7334C57.5139 52.7512 55.9045 51.1443 53.9193 51.1443C51.9341 51.1443 50.3247 52.7512 50.3247 54.7334C50.3247 56.7156 51.9341 58.3225 53.9193 58.3225Z" fill="white"/>
<path d="M79.0804 36.788C81.0657 36.788 82.6751 35.1811 82.6751 33.1989C82.6751 31.2167 81.0657 29.6099 79.0804 29.6099C77.0952 29.6099 75.4858 31.2167 75.4858 33.1989C75.4858 35.1811 77.0952 36.788 79.0804 36.788Z" fill="white"/>
<path d="M109.21 219H23.7894C22.3593 219 20.988 218.433 19.9768 217.423C18.9656 216.414 18.3975 215.044 18.3975 213.616C18.3975 212.189 18.9656 210.819 19.9768 209.81C20.988 208.8 22.3593 208.233 23.7894 208.233H109.21C110.64 208.233 112.012 208.8 113.023 209.81C114.034 210.819 114.602 212.189 114.602 213.616C114.602 215.044 114.034 216.414 113.023 217.423C112.012 218.433 110.64 219 109.21 219V219Z" fill="white"/>
</svg>
