<svg width="391" height="274" viewBox="0 0 391 274" fill="none" xmlns="http://www.w3.org/2000/svg">
<path d="M60.5683 225.251L35.7903 216.587C33.0624 203.063 33.6741 189.077 37.5723 175.844C46.9721 198.494 76.2897 204.826 92.568 223.159C97.6012 228.916 101.276 235.732 103.319 243.103C105.362 250.475 105.722 258.211 104.372 265.741L109.116 283.757C96.8583 282.35 85.0509 278.3 74.5075 271.886C63.9641 265.472 54.9353 256.846 48.0433 246.604C44.2337 240.819 41.1671 234.578 38.9159 228.026C49.6117 227.267 60.5683 225.251 60.5683 225.251Z" fill="#F2F2F2"/>
<path d="M89.0157 171.158L71.7125 151.405C75.9915 138.29 83.4045 126.419 93.3078 116.822C90.3459 141.168 112.748 161.129 117.896 185.107C119.445 192.598 119.29 200.342 117.442 207.764C115.593 215.187 112.1 222.098 107.221 227.986L102.487 246.005C92.51 238.739 84.2257 229.395 78.2047 218.616C72.1836 207.838 68.5688 195.881 67.6094 183.569C67.1395 176.657 67.5412 169.713 68.8049 162.902C78.4877 167.512 89.0157 171.158 89.0157 171.158Z" fill="#F2F2F2"/>
<path d="M233.585 234.474H108.478C104.802 234.474 101.813 235.215 101.813 236.13V285.106H240.267V236.13C240.267 235.215 237.278 234.474 233.585 234.474Z" fill="#F2F2F2"/>
<path d="M245.734 286.817L255.045 289.14L268.427 254.3L254.685 250.872L245.734 286.817Z" fill="#9E616A"/>
<path d="M266.222 266.191C263.027 273.342 260.725 277.919 260.725 277.919L259.584 277.32L256.58 275.744L249.425 271.988L248.196 271.342L248.547 264.512L250.106 234.309L250.767 221.578L223.496 236.003L191.228 253.073C189.906 255.378 188.593 257.62 187.289 259.8L165.366 244.75L187.614 212.258L200.581 206.192L197.784 205.65C198.499 204.615 199.307 203.648 200.199 202.762L201.18 202.209C201.18 202.209 262.882 168.192 280.635 185.634C282.166 187.194 283.315 189.088 283.99 191.168C290.076 208.662 274.874 246.848 266.222 266.191Z" fill="#2F2E41"/>
<path d="M252.646 298.188C251.317 300.177 249.512 301.802 247.396 302.915C245.604 303.897 243.706 304.671 241.739 305.225C215.577 312.876 158.325 297.671 158.325 297.671L160.575 289.71L162.176 284.047L167.606 283.195L170.982 282.662L211.36 276.323L200.236 268.687L187.289 259.8L165.366 244.75L139.091 232.924C108.635 208.641 134.135 181.414 134.135 181.414L151.18 169.324L156.714 165.397L190.712 182.808L200.581 206.192L203.617 213.379L223.496 236.003L248.547 264.512L248.744 264.734C249.468 265.285 250.15 265.889 250.783 266.543C251.015 266.77 251.258 267.023 251.505 267.297C253.757 269.735 255.484 272.61 256.58 275.744C257.291 277.811 257.678 279.976 257.726 282.161C257.728 282.165 257.729 282.17 257.729 282.174C257.729 282.179 257.728 282.183 257.726 282.187C257.839 286.739 256.533 292.107 252.646 298.188Z" fill="#2F2E41"/>
<path d="M122.482 192.906C121.126 192.496 120.436 191.997 120.31 191.336C120.125 190.367 121.215 189.502 122.476 188.5C123.356 187.803 125.676 186.588 124.828 186.214C111.965 180.546 143.237 100.072 152.311 90.928C154.155 89.07 153.935 85.2981 156.392 81.9422C163.104 72.7774 168.993 71.1169 180.724 67.8096C181.676 67.5411 182.669 67.2598 183.7 66.9659C185.036 66.5846 183.628 70.3809 184.324 67.8357C185.098 65.007 185.897 62.0815 187.818 60.6826L187.943 60.5913L188.098 60.6013C191.652 60.8366 203.259 62.7866 209.212 66.9931L209.294 67.0519L209.341 67.1405C210.439 69.1891 209.663 72.2804 208.912 75.2696C208.296 77.7237 209.779 73.8411 210.369 75.1024C214.88 84.7438 222.637 86.9266 222.716 86.9486L223.101 87.0529L223.024 87.4447C225.052 97.9678 211.144 130.57 208.137 152.524C205.082 174.828 222.497 199.948 196.906 195.725C196.965 195.919 206.351 215.204 206.198 215.358C203.871 217.69 127.592 194.45 122.482 192.906Z" fill="#E6E6E6"/>
<path d="M291.798 74.5822C291.982 75.6366 291.934 76.7188 291.656 77.7525C291.378 78.7861 290.876 79.7462 290.187 80.565C289.498 81.3839 288.638 82.0415 287.668 82.4917C286.698 82.9419 285.64 83.1736 284.571 83.1706L275.979 107.731L267.791 96.974L277.206 75.3004C277.33 73.5023 278.109 71.8123 279.395 70.5505C280.681 69.2888 282.384 68.543 284.183 68.4544C285.982 68.3659 287.75 68.9408 289.154 70.0702C290.557 71.1996 291.498 72.805 291.798 74.5822Z" fill="#9E616A"/>
<path d="M253.985 143.025L238.411 139.654C210.32 130.751 200.688 119.765 197.547 112.114C194.196 103.95 197.25 97.9753 197.382 97.7257L197.462 97.618L207.537 87.8048C208.817 86.5583 210.347 85.5984 212.025 84.9886C213.704 84.3788 215.493 84.1331 217.273 84.2678C219.054 84.4024 220.785 84.9144 222.353 85.7697C223.921 86.6249 225.29 87.804 226.368 89.2288L246.827 116.266L256.301 103.42L260.896 99.7402L263.375 92.7861L272.881 82.4355L283.887 87.5328L279.743 112.561L274.199 115.955L273.937 119.639L273.846 119.747L253.985 143.025Z" fill="#E6E6E6"/>
<path d="M175.955 221.459C175.879 221.459 175.802 221.457 175.724 221.454C174.819 221.421 173.936 221.17 173.149 220.722C172.362 220.274 171.694 219.642 171.204 218.881C167.528 213.382 163.017 208.492 157.834 204.386C154.697 201.876 151.418 199.543 148.248 197.285C140.068 191.464 132.365 185.982 128.089 178.407C118.766 161.888 129.745 138.88 145.43 128.562C163.023 116.99 186.163 115.175 208.548 114.937C210.875 114.912 213.203 114.9 215.532 114.9C255.866 114.915 296.116 118.599 335.784 125.905C348.974 128.341 362.781 131.324 373.877 138.566C384.906 145.764 391.61 157.1 390.956 167.446C390.001 182.549 374.005 193.834 359.438 196.785C345.554 199.594 331.131 197.696 315.861 195.684C312.49 195.241 309.005 194.782 305.558 194.383C268.099 190.049 197.73 203.406 194.753 203.977L191.799 204.543L180.339 219.304C179.823 219.976 179.16 220.521 178.399 220.895C177.639 221.269 176.803 221.462 175.955 221.459V221.459Z" fill="#CCF8EB"/>
<path d="M342.765 147.78H184.438C183.525 147.779 182.65 147.415 182.005 146.768C181.36 146.122 180.998 145.246 180.998 144.332C180.998 143.418 181.36 142.542 182.005 141.895C182.65 141.249 183.525 140.885 184.438 140.884H342.765C343.678 140.885 344.553 141.249 345.198 141.895C345.843 142.542 346.206 143.418 346.206 144.332C346.206 145.246 345.843 146.122 345.198 146.768C344.553 147.415 343.678 147.779 342.765 147.78Z" fill="white"/>
<path d="M342.765 168.943H184.438C183.986 168.944 183.537 168.855 183.119 168.683C182.701 168.51 182.32 168.256 182 167.937C181.679 167.617 181.425 167.237 181.251 166.818C181.078 166.4 180.988 165.952 180.988 165.499C180.987 165.046 181.076 164.597 181.249 164.179C181.421 163.76 181.675 163.38 181.995 163.059C182.315 162.738 182.694 162.484 183.112 162.311C183.53 162.137 183.978 162.048 184.431 162.047H342.765C343.678 162.048 344.553 162.412 345.198 163.059C345.843 163.705 346.206 164.582 346.206 165.495C346.206 166.409 345.843 167.285 345.198 167.932C344.553 168.578 343.678 168.942 342.765 168.943V168.943Z" fill="white"/>
<path d="M202.889 190.106H184.438C183.525 190.104 182.65 189.741 182.005 189.094C181.36 188.448 180.998 187.571 180.998 186.658C180.998 185.744 181.36 184.868 182.005 184.221C182.65 183.575 183.525 183.211 184.438 183.21H202.889C203.802 183.211 204.677 183.575 205.322 184.221C205.967 184.868 206.329 185.744 206.329 186.658C206.329 187.571 205.967 188.448 205.322 189.094C204.677 189.741 203.802 190.104 202.889 190.106Z" fill="white"/>
<path d="M292.087 75.5435C305.111 75.5435 315.669 64.9765 315.669 51.9414C315.669 38.9064 305.111 28.3394 292.087 28.3394C279.064 28.3394 268.506 38.9064 268.506 51.9414C268.506 64.9765 279.064 75.5435 292.087 75.5435Z" fill="white"/>
<path d="M292.088 75.8319C287.367 75.8319 282.752 74.4308 278.826 71.8057C274.901 69.1806 271.842 65.4495 270.035 61.0841C268.228 56.7188 267.756 51.9153 268.677 47.281C269.598 42.6468 271.871 38.39 275.209 35.0488C278.547 31.7077 282.801 29.4324 287.431 28.5106C292.061 27.5888 296.86 28.0618 301.222 29.87C305.583 31.6782 309.311 34.7402 311.934 38.6689C314.557 42.5976 315.957 47.2165 315.957 51.9416C315.95 58.2755 313.433 64.3479 308.958 68.8266C304.483 73.3053 298.416 75.8247 292.088 75.8319V75.8319Z" fill="#3F3D56"/>
<path d="M290.322 61.3742C290.272 61.3742 290.221 61.3726 290.171 61.3701C289.727 61.3486 289.293 61.2313 288.898 61.0261C288.504 60.8209 288.158 60.5327 287.885 60.1813L283.944 55.1104C283.695 54.7904 283.512 54.4244 283.404 54.0333C283.297 53.6423 283.268 53.2339 283.318 52.8314C283.368 52.429 283.497 52.0404 283.697 51.6878C283.897 51.3353 284.165 51.0257 284.485 50.7767L284.627 50.6662C284.947 50.417 285.313 50.2333 285.703 50.1256C286.094 50.018 286.502 49.9884 286.904 50.0387C287.307 50.089 287.695 50.2182 288.047 50.4188C288.4 50.6194 288.709 50.8875 288.958 51.2078C289.157 51.4636 289.409 51.6734 289.696 51.8228C289.984 51.9722 290.3 52.0577 290.624 52.0735C290.947 52.0892 291.27 52.0349 291.571 51.9142C291.872 51.7934 292.143 51.6092 292.366 51.3739L300.367 42.9191C300.93 42.3254 301.706 41.9794 302.524 41.9572C303.342 41.935 304.135 42.2382 304.729 42.8005L304.861 42.9257C305.155 43.2046 305.391 43.5387 305.556 43.9091C305.722 44.2794 305.812 44.6787 305.823 45.0841C305.834 45.4895 305.765 45.8931 305.62 46.2719C305.475 46.6506 305.257 46.997 304.978 47.2913L292.561 60.4096C292.273 60.7143 291.926 60.957 291.541 61.1229C291.156 61.2887 290.741 61.3742 290.322 61.3742V61.3742Z" fill="white"/>
<path d="M170.813 174.234C169.758 174.059 168.753 173.655 167.871 173.05C166.989 172.445 166.25 171.654 165.706 170.732C165.163 169.81 164.827 168.78 164.725 167.714C164.622 166.649 164.754 165.573 165.111 164.564L144.804 148.313L157.658 144.146L174.97 160.217C176.624 160.93 177.959 162.225 178.723 163.857C179.486 165.49 179.625 167.346 179.112 169.074C178.6 170.802 177.472 172.281 175.942 173.232C174.413 174.183 172.587 174.54 170.813 174.234V174.234Z" fill="#9E616A"/>
<path d="M118.82 115.85L127.157 102.26C144.857 78.6821 158.405 73.2262 166.658 72.7955C175.464 72.3359 180.085 77.1991 180.277 77.4065L180.352 77.5175L186.265 90.283C187.016 91.9045 187.414 93.6673 187.433 95.4544C187.451 97.2416 187.09 99.0123 186.373 100.649C185.656 102.286 184.6 103.752 183.274 104.949C181.949 106.146 180.384 107.048 178.683 107.594L146.417 117.956L155.388 131.159L157.335 136.718L163.069 141.362L169.677 153.769L161.225 162.474L139.004 150.268L137.642 143.908L134.255 142.44L134.184 142.318L118.82 115.85Z" fill="#E6E6E6"/>
<path d="M233.627 62.012L233.648 62.0139C234.763 62.1103 235.871 61.7593 236.727 61.0382C237.584 60.3171 238.12 59.2848 238.216 58.1686L240.257 34.6819C240.627 30.4743 240.148 26.2353 238.848 22.2169C236.301 14.3741 230.828 7.81771 223.57 3.91415C219.822 1.90396 215.706 0.674046 211.471 0.298539C194.144 -1.23769 187.839 2.41397 177.318 28.9181C166.796 55.4223 175.273 52.4406 175.273 52.4406C175.223 53.0067 175.288 53.577 175.463 54.1175C175.807 55.172 176.544 56.0529 177.521 56.5761C178.023 56.8439 178.573 57.0082 179.139 57.059C199.645 62.1313 220.338 67.4764 233.63 62.0123L233.627 62.012Z" fill="#2F2E41"/>
<path d="M195.261 22.6479C192.716 26.4705 191.36 30.962 191.365 35.5553C191.369 40.1485 192.733 44.6375 195.285 48.4551C197.837 52.2728 201.462 55.248 205.703 57.0048C209.943 58.7617 214.608 59.2216 219.11 58.3262C222.089 57.7432 224.924 56.5743 227.449 54.887C229.974 53.1998 232.14 51.0278 233.82 48.4969C236.359 44.6756 237.711 40.1874 237.705 35.5982C237.7 31.0091 236.336 26.5243 233.787 22.7095C231.239 18.8947 227.618 15.9206 223.383 14.1622C219.148 12.4038 214.487 11.9399 209.989 12.8289C207.006 13.4085 204.169 14.575 201.641 16.2607C199.113 17.9464 196.944 20.1177 195.261 22.6488L195.261 22.6479Z" fill="#9E616A"/>
<path d="M247.534 37.2413C247.827 33.9136 247.448 30.5611 246.42 27.383C246.135 19.5937 243.829 12.5521 234.337 12.9113C231.392 11.333 228.159 10.3637 224.832 10.0611L220.138 9.62854C220.085 9.62364 220.032 9.61891 219.979 9.61435C213.411 9.04645 206.886 11.1135 201.84 15.3606C196.794 19.6078 193.64 25.6873 193.073 32.2616L193.032 32.732L202.964 33.6373L207.176 24.4591L207.028 34.0097L212.158 34.4792L214.282 29.8486L214.209 34.6639C221.865 41.3231 233.41 41.5982 247.489 37.7123L247.534 37.2413Z" fill="#2F2E41"/>
<path d="M215.931 59.7255C216.021 60.4984 215.892 61.2808 215.559 61.984C215.392 62.3441 215.175 62.6789 214.914 62.9787C214.691 63.234 214.439 63.462 214.163 63.6581C213.344 64.2365 212.346 64.5041 211.349 64.4129C211.286 64.4069 211.224 64.3997 211.162 64.3914C211.101 64.3831 211.039 64.3733 210.977 64.3621C210.915 64.3514 210.853 64.3389 210.791 64.3248C210.73 64.3106 210.668 64.2953 210.606 64.2788L207.136 63.3302L203.181 52.5211L202.354 62.0345L186.572 57.7494L190.082 17.3787L216.949 19.8483L216.217 20.5629C213.786 22.9626 212.064 25.987 211.24 29.3033C210.423 32.6637 210.186 36.1395 210.542 39.5798C210.876 43.0586 211.542 46.4973 212.533 49.8486C213.395 52.8162 214.428 55.7316 215.626 58.5803C215.781 58.9459 215.884 59.3314 215.931 59.7255V59.7255Z" fill="#2F2E41"/>
</svg>
