<svg width="378" height="222" viewBox="0 0 378 222" fill="none" xmlns="http://www.w3.org/2000/svg">
<path d="M251.07 200.408H128.074C125.159 200.405 122.364 199.245 120.303 197.183C118.241 195.121 117.082 192.326 117.079 189.41V10.9982C117.082 8.0823 118.241 5.28678 120.303 3.22493C122.364 1.16308 125.159 0.00329249 128.074 0H251.07C253.985 0.00329045 256.78 1.16308 258.842 3.22493C260.903 5.28678 262.062 8.0823 262.066 10.9982V189.41C262.062 192.326 260.903 195.121 258.842 197.183C256.78 199.245 253.985 200.405 251.07 200.408Z" fill="#CBCBCB"/>
<path d="M251.286 193.391H127.858C126.959 193.39 126.098 193.032 125.462 192.397C124.827 191.761 124.469 190.899 124.468 190.001V10.4074C124.469 9.50855 124.827 8.64681 125.462 8.01122C126.098 7.37564 126.959 7.01812 127.858 7.01709H251.286C252.185 7.01812 253.047 7.37564 253.682 8.01122C254.318 8.64681 254.675 9.50855 254.676 10.4074V190.001C254.675 190.899 254.318 191.761 253.682 192.397C253.047 193.032 252.185 193.39 251.286 193.391Z" fill="white"/>
<path d="M189.105 4.30381C189.621 4.30381 190.04 3.88492 190.04 3.3682C190.04 2.85147 189.621 2.43259 189.105 2.43259C188.588 2.43259 188.169 2.85147 188.169 3.3682C188.169 3.88492 188.588 4.30381 189.105 4.30381Z" fill="white"/>
<path d="M239.521 125.864H139.778V126.637H239.521V125.864Z" fill="#CBCBCB"/>
<path d="M207.328 125.864H139.778V126.637H207.328V125.864Z" fill="#CCF8EB"/>
<path d="M207.328 128.953C208.82 128.953 210.03 127.743 210.03 126.25C210.03 124.758 208.82 123.548 207.328 123.548C205.836 123.548 204.626 124.758 204.626 126.25C204.626 127.743 205.836 128.953 207.328 128.953Z" fill="#CCF8EB"/>
<path d="M189.572 72.3913C187.781 72.3893 186.064 71.6768 184.798 70.4101C183.532 69.1435 182.819 67.4261 182.817 65.6348V50.9635C182.817 49.1715 183.529 47.453 184.796 46.1859C186.063 44.9188 187.781 44.207 189.572 44.207C191.364 44.207 193.082 44.9188 194.349 46.1859C195.616 47.453 196.327 49.1715 196.327 50.9635V65.6348C196.325 67.4261 195.613 69.1435 194.347 70.4101C193.08 71.6768 191.363 72.3893 189.572 72.3913Z" fill="#CCF8EB"/>
<path d="M189.572 77.9896C185.786 77.9853 182.156 76.4789 179.478 73.8008C176.801 71.1227 175.295 67.4917 175.29 63.7044C175.29 63.3972 175.412 63.1026 175.629 62.8853C175.847 62.6681 176.141 62.5461 176.448 62.5461C176.755 62.5461 177.05 62.6681 177.267 62.8853C177.484 63.1026 177.606 63.3972 177.606 63.7044C177.606 66.8786 178.867 69.9229 181.111 72.1675C183.355 74.4121 186.399 75.673 189.572 75.673C192.746 75.673 195.789 74.4121 198.034 72.1675C200.278 69.9229 201.538 66.8786 201.538 63.7044C201.538 63.3972 201.66 63.1026 201.877 62.8853C202.095 62.6681 202.389 62.5461 202.696 62.5461C203.003 62.5461 203.298 62.6681 203.515 62.8853C203.732 63.1026 203.854 63.3972 203.854 63.7044C203.85 67.4917 202.344 71.1227 199.666 73.8008C196.989 76.4789 193.359 77.9853 189.572 77.9896Z" fill="#CCF8EB"/>
<path d="M189.572 91.1165C189.265 91.1165 188.971 90.9945 188.753 90.7773C188.536 90.56 188.414 90.2654 188.414 89.9583V77.2174C188.414 76.9102 188.536 76.6156 188.753 76.3984C188.971 76.1812 189.265 76.0591 189.572 76.0591C189.879 76.0591 190.174 76.1812 190.391 76.3984C190.608 76.6156 190.73 76.9102 190.73 77.2174V89.9583C190.73 90.2654 190.608 90.56 190.391 90.7773C190.174 90.9945 189.879 91.1165 189.572 91.1165Z" fill="#CCF8EB"/>
<path d="M186.87 49.4191C187.297 49.4191 187.642 49.0734 187.642 48.647C187.642 48.2205 187.297 47.8748 186.87 47.8748C186.444 47.8748 186.098 48.2205 186.098 48.647C186.098 49.0734 186.444 49.4191 186.87 49.4191Z" fill="white"/>
<path d="M186.87 56.7548C187.297 56.7548 187.642 56.4091 187.642 55.9826C187.642 55.5561 187.297 55.2104 186.87 55.2104C186.444 55.2104 186.098 55.5561 186.098 55.9826C186.098 56.4091 186.444 56.7548 186.87 56.7548Z" fill="white"/>
<path d="M192.274 52.1217C192.701 52.1217 193.046 51.776 193.046 51.3496C193.046 50.9231 192.701 50.5774 192.274 50.5774C191.848 50.5774 191.502 50.9231 191.502 51.3496C191.502 51.776 191.848 52.1217 192.274 52.1217Z" fill="white"/>
<path d="M198.745 91.3239H180.399C180.092 91.3239 179.798 91.2019 179.581 90.9846C179.363 90.7674 179.241 90.4728 179.241 90.1656C179.241 89.8584 179.363 89.5638 179.581 89.3466C179.798 89.1294 180.092 89.0074 180.399 89.0074H198.745C199.052 89.0074 199.347 89.1294 199.564 89.3466C199.781 89.5638 199.903 89.8584 199.903 90.1656C199.903 90.4728 199.781 90.7674 199.564 90.9846C199.347 91.2019 199.052 91.3239 198.745 91.3239Z" fill="#CCF8EB"/>
<path d="M313.852 174.214C313.416 173.894 312.968 173.596 312.513 173.314C312.239 173.137 311.957 172.971 311.675 172.809C311.637 172.786 311.598 172.762 311.56 172.739C310.146 171.937 308.659 171.27 307.121 170.747C305.628 170.238 304.092 169.868 302.531 169.643C302.507 169.637 302.482 169.633 302.458 169.631C302.037 169.569 301.612 169.519 301.184 169.484C300.887 169.454 300.585 169.43 300.284 169.419C299.898 169.392 299.512 169.376 299.119 169.372C299.003 169.369 298.883 169.369 298.764 169.369C297.503 169.368 296.244 169.46 294.996 169.643C294.722 169.681 294.448 169.724 294.178 169.77C293.997 169.805 293.819 169.84 293.641 169.874C292.904 170.025 292.18 170.204 291.468 170.411C291.144 170.508 290.824 170.608 290.503 170.716C290.071 170.859 289.646 171.013 289.226 171.183C288.851 171.326 288.484 171.484 288.122 171.647C285.132 172.994 282.424 174.893 280.139 177.245C279.236 178.168 278.404 179.158 277.649 180.206C277.29 180.704 276.949 181.216 276.627 181.743C276.03 182.703 275.499 183.703 275.036 184.735C274.092 186.832 273.432 189.046 273.075 191.318C272.864 192.661 272.758 194.019 272.759 195.379C272.759 195.626 272.763 195.874 272.77 196.117C272.922 201.753 274.914 207.185 278.441 211.583C278.819 212.062 279.217 212.525 279.63 212.973C280.043 213.421 280.471 213.857 280.915 214.274C281.459 214.792 282.023 215.278 282.606 215.745C286.185 218.595 290.455 220.447 294.981 221.113C299.508 221.78 304.13 221.237 308.379 219.541C308.965 219.309 309.541 219.058 310.1 218.78C309.684 218.324 309.287 217.851 308.912 217.359C308.352 217.622 307.784 217.861 307.202 218.077C303.176 219.575 298.825 219.973 294.594 219.231C290.364 218.49 286.407 216.635 283.131 213.857C282.621 213.425 282.123 212.969 281.652 212.495C281.123 211.966 280.618 211.414 280.143 210.838C279.734 210.348 279.34 209.838 278.973 209.313C275.852 204.892 274.305 199.551 274.58 194.146C274.855 188.741 276.936 183.585 280.49 179.503C280.706 179.252 280.926 179.009 281.15 178.774C281.61 178.291 282.085 177.824 282.579 177.38C284.9 175.285 287.606 173.661 290.546 172.596C290.573 172.585 290.604 172.577 290.63 172.565C290.723 172.531 290.82 172.5 290.916 172.465C291.833 172.151 292.767 171.892 293.715 171.689C294.058 171.616 294.406 171.55 294.753 171.492C294.761 171.492 294.765 171.488 294.772 171.488C295.753 171.328 296.743 171.226 297.737 171.183C298.076 171.168 298.42 171.16 298.764 171.16C299.188 171.16 299.617 171.172 300.037 171.199C300.338 171.21 300.643 171.233 300.941 171.26C301.203 171.284 301.466 171.311 301.724 171.345C304.731 171.711 307.642 172.644 310.301 174.094C310.987 174.466 311.655 174.872 312.301 175.311C312.818 175.662 313.323 176.032 313.81 176.419C314.312 176.052 314.833 175.704 315.365 175.38C314.875 174.971 314.37 174.577 313.852 174.214Z" fill="#3F3D56"/>
<path d="M302.358 135.317L300.953 159.199H273.364C270.97 159.176 268.655 160.052 266.875 161.654C265.277 163.113 264.284 165.119 264.092 167.275L267.24 168.396C267.235 168.034 267.272 167.673 267.35 167.319C267.569 166.372 268.172 164.647 269.795 163.678C270.509 163.272 271.318 163.066 272.139 163.08H303.41L305.168 138.146H315.698V135.317H302.358Z" fill="#3F3D56"/>
<path d="M329.744 147.269L329.736 147.458L328.879 169.994L328.81 171.786C328.559 171.778 328.308 171.774 328.053 171.774C327.559 171.774 327.069 171.789 326.583 171.82C324.198 171.958 321.848 172.454 319.611 173.291C319.032 173.508 318.461 173.747 317.905 174.006C317.031 174.412 316.183 174.871 315.365 175.38C314.833 175.704 314.312 176.052 313.81 176.419C311.674 177.979 309.806 179.876 308.279 182.036C307.743 182.788 307.255 183.572 306.816 184.384L304.774 184.403L290.831 184.557L282.737 184.65H282.733L277.028 184.712L275.036 184.735H274.893L273.075 184.754L269.15 184.801L267.324 184.82L264.792 184.847L266.37 169.921L280.139 170.681L282.579 170.816L283.219 170.851L289.226 171.183L290.515 171.253L293.703 171.43L294.772 171.488L299.956 171.774L300.037 171.199L300.192 170.087L300.285 169.419L300.782 165.824L300.941 164.697L301.164 163.079V163.068L301.184 162.921L301.701 159.199L302.122 156.192L302.512 153.392V153.381L303.133 148.883L303.237 148.145L304.465 148.103L309.236 147.949L311.343 147.879L317.971 147.659L327.216 147.354H327.219L327.984 147.327L328.165 147.319H328.169L329.744 147.269Z" fill="#2F2E41"/>
<path d="M328.053 200.773C330.695 200.773 332.836 198.631 332.836 195.989C332.836 193.347 330.695 191.206 328.053 191.206C325.412 191.206 323.271 193.347 323.271 195.989C323.271 198.631 325.412 200.773 328.053 200.773Z" fill="#3F3D56"/>
<path d="M296.184 199.389C298 199.389 299.472 197.917 299.472 196.1C299.472 194.284 298 192.812 296.184 192.812C294.369 192.812 292.896 194.284 292.896 196.1C292.896 197.917 294.369 199.389 296.184 199.389Z" fill="#3F3D56"/>
<path d="M318.434 171.828C317.851 172.056 317.276 172.311 316.713 172.585C315.725 173.066 314.77 173.611 313.852 174.214C313.32 174.558 312.802 174.923 312.301 175.311C309.861 177.173 307.768 179.449 306.117 182.036H308.278C309.806 179.876 311.674 177.979 313.81 176.419C314.312 176.052 314.833 175.704 315.365 175.38C316.183 174.871 317.031 174.411 317.905 174.006C318.461 173.747 319.032 173.507 319.611 173.291C321.848 172.454 324.198 171.958 326.583 171.82V170.021C323.786 170.176 321.034 170.786 318.434 171.828ZM304.241 185.546H306.213C306.403 185.152 306.603 184.762 306.815 184.384L304.774 184.403C304.584 184.777 304.407 185.16 304.241 185.546ZM329.744 170.037C329.458 170.013 329.169 170.002 328.879 169.994C328.605 169.983 328.331 169.979 328.053 169.979C327.559 169.979 327.069 169.994 326.583 170.021C323.786 170.176 321.034 170.786 318.434 171.828C317.851 172.056 317.276 172.311 316.713 172.585C315.725 173.066 314.77 173.611 313.852 174.214C313.32 174.558 312.802 174.923 312.301 175.311C309.133 177.729 306.558 180.839 304.774 184.403C304.584 184.777 304.407 185.16 304.241 185.546C303.669 186.838 303.207 188.176 302.859 189.546C302.629 190.433 302.449 191.333 302.319 192.24C302.203 193.036 302.124 193.84 302.083 194.653C302.06 195.097 302.048 195.541 302.048 195.989C302.049 196.975 302.104 197.96 302.214 198.939C302.734 203.498 304.455 207.838 307.201 211.514C307.576 212.016 307.97 212.506 308.379 212.977C311.178 216.222 314.736 218.724 318.736 220.261C322.736 221.797 327.054 222.322 331.305 221.787C335.556 221.252 339.609 219.674 343.104 217.194C346.598 214.714 349.426 211.409 351.335 207.572C353.244 203.735 354.175 199.486 354.046 195.202C353.917 190.918 352.731 186.733 350.594 183.018C348.458 179.303 345.436 176.174 341.798 173.909C338.161 171.645 334.02 170.314 329.744 170.037H329.744ZM328.053 220.205C324.668 220.206 321.321 219.496 318.228 218.12C315.135 216.744 312.366 214.732 310.1 212.217C309.684 211.761 309.287 211.287 308.912 210.796C305.799 206.792 304.031 201.907 303.859 196.839C303.847 196.557 303.843 196.275 303.843 195.989C303.84 192.374 304.65 188.805 306.213 185.546C306.403 185.152 306.603 184.762 306.816 184.384C307.255 183.572 307.743 182.788 308.278 182.036C309.806 179.876 311.674 177.979 313.81 176.419C314.312 176.052 314.833 175.704 315.365 175.38C316.183 174.871 317.031 174.411 317.905 174.006C318.461 173.747 319.032 173.507 319.611 173.291C321.848 172.454 324.198 171.958 326.583 171.82C327.069 171.789 327.559 171.774 328.053 171.774C328.308 171.774 328.559 171.778 328.81 171.786C329.122 171.797 329.435 171.813 329.744 171.832C336.004 172.269 341.849 175.121 346.049 179.785C350.248 184.449 352.472 190.562 352.253 196.835C352.033 203.108 349.388 209.05 344.873 213.41C340.359 217.77 334.328 220.206 328.053 220.205ZM303.859 196.839C303.847 196.557 303.843 196.275 303.843 195.989C303.84 192.374 304.65 188.805 306.213 185.546H304.241C303.669 186.838 303.207 188.176 302.859 189.546C302.918 189.796 302.948 190.053 302.948 190.31C302.948 191.004 302.728 191.68 302.319 192.24C302.203 193.036 302.124 193.84 302.083 194.653C302.06 195.097 302.048 195.541 302.048 195.989C302.049 196.975 302.104 197.96 302.214 198.939C302.734 203.498 304.455 207.838 307.201 211.514C307.784 211.298 308.352 211.058 308.912 210.796C305.799 206.792 304.031 201.907 303.859 196.839Z" fill="#3F3D56"/>
<path opacity="0.1" d="M313.196 159.534C313.421 159.534 313.603 159.352 313.603 159.128C313.603 158.903 313.421 158.721 313.196 158.721C312.972 158.721 312.79 158.903 312.79 159.128C312.79 159.352 312.972 159.534 313.196 159.534Z" fill="black"/>
<path opacity="0.1" d="M311.815 166.27C312.04 166.27 312.222 166.088 312.222 165.863C312.222 165.639 312.04 165.457 311.815 165.457C311.591 165.457 311.409 165.639 311.409 165.863C311.409 166.088 311.591 166.27 311.815 166.27Z" fill="black"/>
<path d="M260.199 208.493L256.534 208.492L254.791 194.355L260.199 194.355L260.199 208.493Z" fill="#FFB7B7"/>
<path d="M260.198 207.298L256.388 207.294H253.918C253.314 207.294 252.715 207.413 252.157 207.644C251.599 207.875 251.091 208.214 250.664 208.641C250.237 209.069 249.898 209.576 249.667 210.135C249.435 210.693 249.317 211.292 249.317 211.896V212.047H261.132V207.298H260.198Z" fill="#2F2E41"/>
<path d="M272.333 210.255L268.669 210.18L267.215 196.009L272.622 196.12L272.333 210.255Z" fill="#FFB7B7"/>
<path d="M272.357 209.058L268.544 208.981L266.077 208.931C265.473 208.917 264.872 209.023 264.309 209.242C263.746 209.461 263.232 209.789 262.796 210.208C262.36 210.626 262.011 211.126 261.768 211.679C261.526 212.233 261.395 212.829 261.383 213.433L261.379 213.583L273.195 213.827L273.214 212.85L273.291 209.078L272.357 209.058Z" fill="#2F2E41"/>
<path d="M285.096 159.61L263.925 166.595C262.667 166.905 261.523 167.566 260.627 168.502C259.731 169.437 259.119 170.608 258.863 171.878L252.467 203.614L262.72 203.774L269.2 177.103L283.191 171.378L272.47 177.583C271.503 178.351 270.754 179.359 270.299 180.508L263.99 204.062H275.298L281.724 185.227L309.615 169.325L285.096 159.61Z" fill="#2F2E41"/>
<path d="M306.452 126.477L293.05 128.104C293.05 128.104 285.182 131.634 285.182 133.428C285.182 135.222 282.051 160.934 282.051 160.934C282.051 160.934 279.265 162.654 290.144 165.68C301.024 168.707 302.976 172.884 302.976 172.884L303.804 176.375L316.268 171.995L318.36 142.098L320.748 130.457L312.681 125.954L306.452 126.477Z" fill="#CBCBCB"/>
<path d="M300.703 123.873C305.994 123.873 310.284 119.582 310.284 114.289C310.284 108.997 305.994 104.706 300.703 104.706C295.411 104.706 291.121 108.997 291.121 114.289C291.121 119.582 295.411 123.873 300.703 123.873Z" fill="#FFB7B7"/>
<path d="M307.27 104.451L307.46 103.424L304.894 102.948C304.894 102.948 301.265 99.6193 297.101 102.032C292.937 104.445 291.112 105.699 291.112 105.699L289.191 107.467L290.636 108.266L288.81 109.52L290.35 109.806L289.038 111.155L291.2 115.539C291.2 115.539 291.604 111.632 294.683 112.203C297.762 112.775 302.116 109.335 302.116 109.335L308.766 116.411C308.766 116.411 308.822 113.25 310.62 113.576C310.62 113.576 312.82 106.012 307.27 104.451Z" fill="#2F2E41"/>
<path d="M309.731 146.93C310.057 146.442 310.485 146.032 310.986 145.728C311.486 145.425 312.048 145.234 312.63 145.171C313.212 145.107 313.802 145.172 314.356 145.361C314.911 145.55 315.417 145.859 315.839 146.264L328.524 139.794L327.701 147.149L315.782 152.166C315.053 152.831 314.106 153.205 313.12 153.218C312.134 153.231 311.177 152.881 310.431 152.236C309.686 151.59 309.202 150.694 309.073 149.716C308.944 148.738 309.179 147.746 309.731 146.93Z" fill="#FFB7B7"/>
<path d="M317.637 131.019L320.748 130.456L337.35 137.883L338.48 145.161L328.523 147.779L323.313 141.077L315.688 143.193L311.187 136.418L317.637 131.019Z" fill="#CBCBCB"/>
<path d="M302.832 139.353L302.447 156.179C302.437 156.612 302.78 156.971 303.212 156.981L310.348 157.144C310.78 157.154 311.139 156.811 311.149 156.378L311.534 139.552C311.543 139.119 311.201 138.76 310.768 138.75L303.633 138.587C303.2 138.577 302.842 138.92 302.832 139.353Z" fill="#3F3D56"/>
<path d="M307.201 145.453C307.956 145.453 308.569 144.841 308.569 144.085C308.569 143.329 307.956 142.716 307.201 142.716C306.445 142.716 305.832 143.329 305.832 144.085C305.832 144.841 306.445 145.453 307.201 145.453Z" fill="white"/>
<path d="M303.085 148.86C302.574 148.634 302.02 148.523 301.461 148.535C300.902 148.547 300.353 148.682 299.852 148.929C299.35 149.176 298.91 149.53 298.56 149.967C298.21 150.403 297.961 150.91 297.829 151.453L284.306 152.744L288.734 158.242L300.897 156.174C301.824 156.336 302.778 156.152 303.578 155.657C304.378 155.162 304.969 154.391 305.239 153.489C305.509 152.588 305.439 151.618 305.042 150.765C304.645 149.912 303.949 149.234 303.085 148.86Z" fill="#FFB7B7"/>
<path d="M289.337 135.988L288.629 149.155L291.286 149.995L290.144 159.174L283.321 160.205L286.169 136.442L289.337 135.988Z" fill="#CBCBCB"/>
<path d="M328.69 135.316L328.424 139.845L328.32 141.613V141.636L327.995 147.099L327.984 147.327L327.285 159.199H299.597C297.236 159.2 294.959 160.074 293.205 161.655C292.917 161.918 292.646 162.201 292.395 162.5C292.238 162.686 292.091 162.879 291.954 163.079C291.778 163.326 291.616 163.582 291.468 163.848C291.122 164.473 290.856 165.14 290.677 165.832C290.657 165.888 290.642 165.944 290.63 166.002C290.527 166.42 290.456 166.846 290.418 167.276L290.503 170.716L290.515 171.253L290.546 172.596L290.723 180.094L290.831 184.557L290.932 188.762C288.395 188.7 284.038 190.044 281.517 199.047C280.961 201.032 280.513 202.765 280.143 204.275C279.954 205.043 279.783 205.755 279.629 206.41C279.371 207.529 279.159 208.491 278.973 209.313C278.769 210.24 278.599 210.985 278.441 211.583C277.889 213.614 277.449 213.873 276.055 213.348C275.126 213.094 274.175 212.927 273.214 212.85C270.354 212.51 265.926 212.197 261.661 211.946C261.484 211.939 261.31 211.927 261.132 211.915C255.045 211.56 249.444 211.336 249.444 211.336V214.842L276.055 217.236C276.055 217.236 278.8 218.467 280.915 214.274C281.204 213.7 281.451 213.105 281.652 212.495C281.787 212.112 281.915 211.699 282.034 211.255C282.223 210.568 282.414 209.877 282.605 209.182C282.779 208.553 282.957 207.919 283.131 207.294C284.277 203.171 285.381 199.298 286.029 197.07C286.276 196.169 286.718 195.334 287.324 194.622C287.929 193.911 288.684 193.342 289.534 192.955C290.128 192.676 290.777 192.534 291.433 192.542L294.575 192.403L294.259 185.546H306.213C306.403 185.152 306.603 184.762 306.815 184.384C307.255 183.572 307.743 182.788 308.278 182.036H294.124L293.973 178.241L293.715 171.689L293.703 171.43L293.641 169.874L293.583 168.396C293.575 168.03 293.611 167.664 293.691 167.307C293.722 167.172 293.761 167.017 293.811 166.855C294.01 166.163 294.328 165.511 294.753 164.929C295.053 164.519 295.417 164.159 295.83 163.863C295.928 163.792 296.03 163.726 296.135 163.666C296.736 163.325 297.406 163.125 298.096 163.079C298.222 163.068 298.348 163.064 298.474 163.068H326.583V171.82C327.069 171.789 327.559 171.774 328.053 171.774C328.308 171.774 328.559 171.778 328.81 171.786C329.122 171.797 329.435 171.813 329.744 171.832V162.983L330.855 147.165L331.493 138.134H342.026L342.03 135.316H328.69Z" fill="#3F3D56"/>
<path d="M72.841 145.394C73.3837 145.124 73.8606 144.738 74.2381 144.264C74.6156 143.789 74.8846 143.238 75.0259 142.648C75.1673 142.058 75.1777 141.445 75.0564 140.851C74.9351 140.257 74.685 139.696 74.3238 139.209L77.4246 108.886H70.7236L68.2594 138.495C67.4817 139.157 66.9735 140.08 66.8311 141.091C66.6887 142.102 66.9219 143.13 67.4867 143.98C68.0514 144.831 68.9084 145.444 69.8953 145.705C70.8821 145.965 71.9302 145.855 72.841 145.394V145.394Z" fill="#9F616A"/>
<path d="M78.9937 92.1515C84.2297 92.1515 88.4743 87.9059 88.4743 82.6688C88.4743 77.4317 84.2297 73.1861 78.9937 73.1861C73.7578 73.1861 69.5132 77.4317 69.5132 82.6688C69.5132 87.9059 73.7578 92.1515 78.9937 92.1515Z" fill="#9F616A"/>
<path d="M80.7784 126.546C80.3989 126.545 80.0299 126.421 79.7281 126.191C79.4262 125.961 79.2082 125.638 79.1074 125.272C78.3478 122.512 76.3717 117.845 73.2339 111.4C72.5259 109.943 72.1338 108.353 72.0834 106.734C72.033 105.115 72.3255 103.504 72.9415 102.005C73.5575 100.507 74.4832 99.1566 75.6579 98.0415C76.8326 96.9265 78.2298 96.0725 79.7576 95.5355C81.2056 95.0241 82.7413 94.8084 84.274 94.9012C85.8067 94.9939 87.3053 95.3931 88.681 96.0753C90.0568 96.7575 91.2818 97.7087 92.2835 98.8727C93.2853 100.037 94.0435 101.39 94.5132 102.852C96.9453 110.479 96.8279 118.649 96.6645 121.807C96.6442 122.187 96.4998 122.55 96.2534 122.841C96.007 123.131 95.6723 123.333 95.3004 123.415L81.151 126.505C81.0286 126.532 80.9037 126.546 80.7784 126.546Z" fill="#CCF8EB"/>
<path d="M94.4805 216.592H99.2129L101.464 198.335H94.4797L94.4805 216.592Z" fill="#9F616A"/>
<path d="M93.2737 221.181L93.2734 215.047L102.593 215.046C104.168 215.046 105.679 215.672 106.793 216.786C107.907 217.9 108.532 219.411 108.533 220.987V221.18L93.2737 221.181Z" fill="#2F2E41"/>
<path d="M47.1604 210.458L51.3072 212.738L62.0747 197.824L55.9542 194.459L47.1604 210.458Z" fill="#9F616A"/>
<path d="M57.264 221.25L43.8926 213.897L46.847 208.522L55.0136 213.013C56.3926 213.773 57.4138 215.049 57.8531 216.562C58.2924 218.074 58.114 219.699 57.3569 221.08L57.264 221.25Z" fill="#2F2E41"/>
<path d="M94.2596 206.458C93.838 206.458 93.4308 206.304 93.1141 206.026C92.7975 205.747 92.593 205.363 92.5388 204.945L86.6205 159.329C86.5943 159.127 86.5051 158.939 86.3656 158.791C86.226 158.643 86.0432 158.543 85.8434 158.505C85.6436 158.467 85.4368 158.493 85.2528 158.58C85.0687 158.666 84.9167 158.809 84.8185 158.987L60.1536 203.746C59.9501 204.112 59.6222 204.392 59.2296 204.536C58.837 204.68 58.4057 204.679 58.0141 204.532L52.6379 202.483C52.4217 202.4 52.2241 202.276 52.0567 202.116C51.8893 201.956 51.7556 201.764 51.6633 201.552C51.5711 201.34 51.5221 201.111 51.5194 200.88C51.5167 200.648 51.5602 200.419 51.6475 200.204L68.7334 158.222C68.7767 158.116 68.806 158.004 68.8207 157.89C71.1349 139.974 77.023 130.863 78.7724 128.498C78.9002 128.324 78.9843 128.122 79.0176 127.909C79.0509 127.696 79.0325 127.477 78.9638 127.273L78.7233 126.551C78.6273 126.265 78.6076 125.958 78.6662 125.662C78.7248 125.366 78.8597 125.09 79.0576 124.861C85.3615 117.68 96.3489 121.598 96.4592 121.639L96.5142 121.659L96.5487 121.706C108.869 138.606 104.314 193.497 103.275 204.329C103.237 204.736 103.055 205.116 102.763 205.402C102.471 205.688 102.087 205.862 101.68 205.892L94.3945 206.453C94.3493 206.457 94.3043 206.458 94.2596 206.458Z" fill="#2F2E41"/>
<path d="M115.851 93.684C115.803 93.8923 115.772 94.104 115.758 94.3172L99.1766 103.885L95.1462 101.564L90.8496 107.191L97.5854 111.993C98.1296 112.381 98.7849 112.581 99.4529 112.565C100.121 112.549 100.766 112.316 101.29 111.902L118.389 98.4102C119.16 98.6959 120.001 98.7398 120.798 98.5362C121.595 98.3325 122.312 97.8909 122.852 97.2701C123.392 96.6493 123.73 95.8787 123.822 95.0609C123.914 94.243 123.754 93.4166 123.365 92.6915C122.975 91.9665 122.375 91.3773 121.642 91.0021C120.91 90.627 120.081 90.4838 119.265 90.5915C118.449 90.6992 117.686 91.0528 117.076 91.6052C116.466 92.1576 116.038 92.8827 115.851 93.684H115.851Z" fill="#9F616A"/>
<path d="M98.6223 104.338L93.2632 111.286C93.1107 111.483 92.9174 111.646 92.6965 111.762C92.4755 111.878 92.2322 111.945 91.9829 111.959C91.7337 111.973 91.4844 111.932 91.2522 111.841C91.0199 111.75 90.81 111.609 90.6368 111.429L84.5699 105.128C83.5619 104.342 82.9068 103.189 82.7482 101.921C82.5897 100.652 82.9407 99.373 83.7243 98.3633C84.5079 97.3536 85.66 96.6962 86.9277 96.5353C88.1954 96.3744 89.4752 96.7232 90.486 97.5051L98.0952 101.761C98.3131 101.883 98.5021 102.05 98.6494 102.252C98.7967 102.453 98.8988 102.684 98.9488 102.929C98.9988 103.173 98.9956 103.426 98.9392 103.669C98.8829 103.912 98.7748 104.141 98.6223 104.338L98.6223 104.338Z" fill="#CCF8EB"/>
<path d="M77.8511 116.408L69.2179 114.849C68.9722 114.805 68.739 114.708 68.5342 114.565C68.3293 114.423 68.1576 114.237 68.0307 114.022C67.9038 113.807 67.8248 113.568 67.7989 113.319C67.773 113.071 67.801 112.82 67.8808 112.583L70.6796 104.295C70.9135 103.039 71.6359 101.928 72.6882 101.204C73.7405 100.48 75.0368 100.203 76.293 100.433C77.5492 100.664 78.6627 101.384 79.3892 102.434C80.1158 103.485 80.3962 104.781 80.1689 106.038L79.8959 114.753C79.888 115.003 79.8264 115.248 79.7153 115.472C79.6043 115.695 79.4464 115.892 79.2523 116.049C79.0583 116.206 78.8327 116.32 78.5908 116.382C78.349 116.444 78.0967 116.453 77.8511 116.408Z" fill="#CCF8EB"/>
<path d="M80.4943 80.4877C82.931 82.1558 86.1304 83.8705 88.6191 82.0941C90.2533 80.9277 90.7681 78.7678 90.1055 76.8723C88.9138 73.4637 85.6397 71.9631 82.5088 70.8128C78.4386 69.3175 74.0069 68.1279 69.8051 69.1988C65.6033 70.2697 61.8899 74.3387 62.6484 78.6089C63.2584 82.0428 66.4969 84.9001 66.0371 88.3574C65.5744 91.8369 61.6623 93.6684 58.2085 94.2902C54.7547 94.9121 50.8898 95.1119 48.4076 97.5933C45.2413 100.759 46.032 106.417 49.0114 109.759C51.9909 113.101 56.487 114.616 60.8438 115.646C66.6162 117.01 72.8596 117.727 78.3419 115.463C83.8243 113.198 88.0906 107.102 86.5025 101.386C85.8317 98.9715 84.2514 96.9309 82.7241 94.9444C81.1968 92.9578 79.6503 90.8804 79.0678 88.4431C78.5823 86.412 78.9416 84.0538 80.2882 82.5302C80.5332 82.2636 80.6873 81.9261 80.7285 81.5663C80.7697 81.2066 80.6959 80.843 80.5177 80.5278L80.4943 80.4877Z" fill="#2F2E41"/>
<path d="M147.452 222H0.386C0.283626 222 0.185446 221.959 0.113056 221.887C0.0406674 221.815 0 221.716 0 221.614C0 221.512 0.0406674 221.413 0.113056 221.341C0.185446 221.268 0.283626 221.228 0.386 221.228H147.452C147.554 221.228 147.653 221.268 147.725 221.341C147.797 221.413 147.838 221.512 147.838 221.614C147.838 221.716 147.797 221.815 147.725 221.887C147.653 221.959 147.554 222 147.452 222Z" fill="#CBCBCB"/>
<path d="M385.614 222H238.548C238.446 222 238.348 221.959 238.275 221.887C238.203 221.815 238.162 221.716 238.162 221.614C238.162 221.512 238.203 221.413 238.275 221.341C238.348 221.268 238.446 221.228 238.548 221.228H385.614C385.716 221.228 385.815 221.268 385.887 221.341C385.959 221.413 386 221.512 386 221.614C386 221.716 385.959 221.815 385.887 221.887C385.815 221.959 385.716 222 385.614 222Z" fill="#CBCBCB"/>
</svg>
