<svg width="249" height="244" viewBox="0 0 249 244" fill="none" xmlns="http://www.w3.org/2000/svg">
<path d="M231.816 236.827C231.769 239.052 232.076 241.271 232.726 243.4C232.749 243.477 232.776 243.554 232.804 243.632H246.202C246.01 242.689 245.706 241.773 245.296 240.902C244.181 238.537 242.361 236.513 240.563 234.502C238.087 231.732 235.671 228.985 235.289 225.382C234.307 226.877 233.524 228.493 232.958 230.19C233.651 230.446 234.286 230.836 234.829 231.336C234.979 231.477 235.138 231.682 235.061 231.878C234.988 232.041 234.788 232.096 234.61 232.132C234.183 232.214 233.755 232.296 233.327 232.373C232.99 232.442 232.649 232.505 232.308 232.569C232.008 233.969 231.843 235.395 231.816 236.827Z" fill="#E6E6E6"/>
<path d="M219.561 235.353C221.709 236.658 223.075 238.678 224.19 240.939C225.16 241.16 226.056 241.63 226.788 242.303C226.943 242.444 227.102 242.649 227.02 242.845C226.952 243.008 226.747 243.063 226.57 243.099C226.147 243.181 225.714 243.263 225.291 243.34C225.332 243.436 225.373 243.536 225.414 243.632H239.613C238.969 242.763 238.255 241.947 237.479 241.193C237.31 241.025 237.137 240.866 236.96 240.702C235.15 239.067 233.071 237.756 230.816 236.827C227.263 235.342 223.377 234.833 219.561 235.353Z" fill="#E6E6E6"/>
<path d="M237.247 243.632H249.889C249.958 242.62 249.952 241.604 249.871 240.593C249.597 237.464 248.648 234.431 247.088 231.703C245.529 228.976 243.396 226.619 240.837 224.795C241.493 227.129 241.156 229.449 240.473 231.778C240.569 231.809 240.664 231.837 240.751 231.873C241.443 232.129 242.079 232.519 242.621 233.019C242.772 233.16 242.931 233.365 242.854 233.561C242.785 233.724 242.58 233.779 242.403 233.815C241.975 233.897 241.547 233.979 241.124 234.056C240.783 234.125 240.441 234.188 240.1 234.257C239.941 234.284 239.782 234.316 239.622 234.348C239.6 234.402 239.586 234.452 239.563 234.502C238.762 236.708 237.888 238.933 237.479 241.193C237.377 241.761 237.307 242.333 237.269 242.908C237.256 243.149 237.247 243.39 237.247 243.632Z" fill="#E6E6E6"/>
<path d="M182.9 76.4453C186.39 70.6755 190.526 64.5151 197.003 62.631C204.504 60.4492 212.209 64.7835 218.745 69.0604C238.292 81.8515 257.115 95.7135 275.13 110.583L275.11 110.807C261.085 109.84 247.06 108.873 233.035 107.907C222.902 107.208 212.421 106.413 203.466 101.622C200.068 99.8042 196.756 97.3756 192.905 97.2064C188.121 96.9962 183.95 100.336 180.672 103.825C161.281 124.463 155.67 156.023 133.916 174.155C147.633 140.342 164.013 107.67 182.9 76.4453Z" fill="#F2F2F2"/>
<path d="M183.217 198.915L196.183 100.397C196.273 99.7017 196.501 99.0317 196.854 98.426C197.206 97.8204 197.677 97.2914 198.237 96.8701L197.413 95.7826C196.708 96.3125 196.116 96.978 195.673 97.7398C195.229 98.5016 194.942 99.3444 194.829 100.219L181.863 198.738L183.217 198.915Z" fill="#3F3D56"/>
<path d="M179.777 145.625C176.742 145.625 174.281 143.166 174.281 140.132C174.281 137.099 176.742 134.64 179.777 134.64C182.811 134.64 185.272 137.099 185.272 140.132C185.272 143.166 182.811 145.625 179.777 145.625Z" fill="#FFB8B8"/>
<path d="M207.346 161.669C206.317 160.011 205.023 158.532 203.516 157.291C204.871 158.871 205.795 160.774 206.199 162.815C205.84 163.122 205.458 163.4 205.056 163.649C203.847 164.382 202.517 164.897 201.129 165.168C200.001 162.773 198.355 160.657 196.31 158.973C197.875 160.798 198.861 163.047 199.143 165.435C197.564 165.533 195.979 165.434 194.425 165.139C192.093 164.708 189.77 163.89 187.971 162.348C186.024 160.679 184.827 158.271 184.186 155.788C183.545 153.308 183.413 150.727 183.286 148.167C183.224 146.947 182.016 145.714 181.954 144.494L182.033 144.482C182.497 143.705 182.826 142.856 183.008 141.97C183.093 141.525 183.066 141.067 182.93 140.635C182.795 140.203 182.553 139.813 182.229 139.497C181.846 139.196 181.39 139 180.908 138.929C180.856 138.88 180.801 138.834 180.744 138.788C179.709 137.974 178.541 137.346 177.292 136.931C178.114 137.338 178.799 137.978 179.262 138.77C178.512 138.719 177.763 138.668 177.014 138.619C176.733 138.398 176.441 138.191 176.139 138C175.793 137.796 175.431 137.617 175.058 137.467C175.481 137.74 175.833 138.11 176.084 138.546C175.116 138.451 174.131 138.238 173.526 137.508C172.523 136.302 173.212 134.37 174.428 133.378C175.317 132.685 176.401 132.289 177.528 132.245C178.655 132.201 179.767 132.513 180.706 133.135C182.424 131.426 185.176 131.039 187.482 131.78C189.009 132.301 190.388 133.18 191.505 134.344C190.96 134.355 190.416 134.398 189.876 134.472C190.651 134.47 191.417 134.648 192.112 134.992C192.455 135.383 192.777 135.791 193.077 136.216C193.274 136.495 193.463 136.779 193.644 137.068C194.705 138.859 195.64 140.721 196.443 142.641C197.438 144.849 198.484 147.066 200.011 148.947C202.348 151.805 205.646 153.715 209.29 154.319C209.969 156.883 209.077 159.623 207.346 161.669Z" fill="#2F2E41"/>
<path d="M180.694 133.288C181.491 134.154 182.078 135.192 182.409 136.322C182.739 137.451 182.804 138.641 182.599 139.8L180.694 133.288Z" fill="#FD6584"/>
<path d="M163.684 165.607C163.828 165.883 164.031 166.125 164.278 166.315C164.525 166.504 164.811 166.638 165.115 166.705C165.42 166.772 165.735 166.772 166.039 166.704C166.344 166.637 166.629 166.503 166.877 166.313L173.21 170.47L173.202 166.535L167.189 163.191C166.842 162.797 166.363 162.544 165.842 162.48C165.321 162.416 164.795 162.545 164.363 162.843C163.931 163.141 163.623 163.587 163.498 164.096C163.373 164.605 163.439 165.143 163.684 165.607Z" fill="#FFB8B8"/>
<path d="M186.465 150.469C186.465 150.469 189.064 154.068 188.986 158.284C188.909 162.5 185.322 176.418 183.546 176.385C181.77 176.353 167.705 168.326 167.705 168.326L169.772 164.59L179.902 169.216C179.902 169.216 178.95 148.556 186.465 150.469Z" fill="#CCF8EB"/>
<path d="M191.025 165.299L191.587 172.851L193.091 178.542L180.026 179.741L176.134 167.264L177.562 163.888L191.025 165.299Z" fill="#FFB8B8"/>
<path d="M175.963 152.544L177.042 151.539L177.579 148.274L183.505 146.38L186.049 148.595L190.463 149.774L192.183 158.107L193.774 168.434L177.718 172.818L174.82 165.745C174.82 165.745 169.758 161.299 173.352 157.37L175.963 152.544Z" fill="#CCF8EB"/>
<path d="M173.965 193.541C174.346 193.281 174.797 193.141 175.258 193.141H203.019C203.623 193.141 204.202 193.38 204.628 193.807C205.055 194.233 205.295 194.812 205.295 195.415C205.295 196.018 205.055 196.597 204.628 197.023C204.202 197.45 203.623 197.689 203.019 197.689H175.258C174.778 197.689 174.31 197.537 173.921 197.255C173.532 196.973 173.242 196.576 173.092 196.12C173.02 195.892 172.984 195.654 172.982 195.415C172.983 195.047 173.073 194.684 173.244 194.357C173.415 194.031 173.663 193.751 173.965 193.541Z" fill="#CCF8EB"/>
<path d="M217.164 144.578C219.367 182.697 227.945 220.506 249.804 243.632H351.06C351.069 243.641 351.073 243.65 351.083 243.659C351.105 243.691 351.128 243.722 351.155 243.759L351.328 243.632H360.844L360.722 243.231C359.067 242.642 357.463 241.921 355.925 241.075C355.365 240.761 354.837 240.443 354.341 240.111C353.239 239.389 352.209 238.564 351.265 237.645C350.178 236.579 349.223 235.386 348.42 234.093C346.9 231.673 345.958 229.066 345.039 226.41C344.679 225.368 344.32 224.318 343.933 223.267C341.876 217.69 338.963 212.118 330.161 207.719C303.593 194.442 283.887 152.288 272.127 110.604C271.826 109.535 271.531 108.466 271.239 107.397C270.261 103.808 269.343 100.236 268.486 96.6802C268.313 95.9842 268.149 95.2883 267.985 94.5923C264.825 81.3602 262.439 67.955 260.84 54.4452C259.725 44.6245 259.293 35.9683 259.57 29.1588C259.648 25.8495 260.049 22.5558 260.767 19.3244L227.235 17.9098C227.235 17.9098 226.726 20.2842 225.925 24.5737C225.115 28.9314 224.004 35.2677 222.835 43.0916C222.065 48.2043 221.274 53.9585 220.518 60.2039C220.468 60.636 220.418 61.0727 220.368 61.5094C220.058 64.1022 219.758 66.7859 219.471 69.5379C218.297 80.7323 217.323 93.1413 216.854 106.119C216.795 107.697 216.745 109.283 216.704 110.877C216.413 121.889 216.509 133.247 217.164 144.578Z" fill="#2F2E41"/>
<path d="M218.887 112.176L172.616 84.5756L166.327 103.957L242.711 164.993L218.887 112.176Z" fill="#2F2E41"/>
<path d="M115.944 64.0886C115.985 64.0021 116.031 63.9157 116.081 63.8293C117.926 60.3649 120.713 57.4923 124.12 55.543C127.528 53.5937 131.418 52.647 135.341 52.8122C137.18 52.9001 139.017 52.5995 140.732 51.9302C142.447 51.2609 144.001 50.2378 145.294 48.9276L145.476 48.7411C147.168 47.0348 149.064 45.5423 151.119 44.297L151.274 44.2015L151.401 44.3379C152.59 45.6004 153.938 46.7029 155.411 47.6176C155.243 47.4265 155.088 47.2309 154.933 47.0262C154.932 47.0263 154.932 47.0262 154.931 47.0259C154.931 47.0257 154.93 47.0254 154.93 47.0249C154.929 47.0245 154.929 47.024 154.929 47.0235C154.929 47.0229 154.928 47.0223 154.928 47.0217C154.115 45.9464 153.44 44.7726 152.921 43.5283L152.84 43.3327L153.003 43.2508L153.031 43.2372C158.528 40.4428 164.768 39.4546 170.86 40.4136C176.953 41.3725 182.587 44.2296 186.959 48.5774C187.537 49.1505 188.092 49.7464 188.611 50.3559C188.902 50.6971 189.189 51.0428 189.462 51.3976C192.203 54.9138 194.098 59.0133 195 63.379V63.3835C195.055 63.6382 195.105 63.8884 195.151 64.1431C196.001 68.7856 195.716 73.5647 194.321 78.0735C192.925 82.5823 190.461 86.6874 187.136 90.0391C186.463 90.7168 185.753 91.3673 185.02 91.9768C184.487 92.4226 183.937 92.8456 183.377 93.2459C178.131 96.9596 173.478 101.447 169.578 106.556C167.952 108.706 166.481 110.969 165.177 113.329C164.237 115.026 163.067 116.586 161.7 117.964C161.464 118.196 161.218 118.432 160.963 118.664L160.672 118.937L160.59 118.546C160.467 117.957 160.379 117.362 160.326 116.763V116.758C160.272 116.175 160.258 115.588 160.285 115.003C159.856 116.182 159.544 117.401 159.352 118.642V118.646C159.279 119.105 159.225 119.56 159.184 120.029L159.175 120.129L159.088 120.193C158.824 120.384 158.556 120.566 158.283 120.738C155.322 122.669 151.916 123.811 148.389 124.055C147.906 124.091 147.415 124.109 146.928 124.109C146.418 124.109 145.908 124.091 145.399 124.055C140.116 123.664 135.183 121.272 131.606 117.368C128.028 113.464 126.078 108.342 126.152 103.048C126.142 100.331 125.589 97.6438 124.526 95.1434C123.462 92.6429 121.909 90.3802 119.958 88.488C119.936 88.4607 119.908 88.4334 119.881 88.4061L119.808 88.3333C117.193 85.7442 115.313 82.5074 114.361 78.9538L114.288 78.6763L114.452 78.6718H114.574C115.272 78.6589 115.967 78.6073 116.659 78.5171C118.187 78.3321 119.688 77.9703 121.133 77.4391C119.007 77.5574 116.691 77.1207 113.933 76.1018L113.801 76.0517L113.787 75.9153C113.319 71.8465 114.07 67.7304 115.944 64.0886Z" fill="#3F3D56"/>
<path opacity="0.15" d="M128.912 111.188C128.905 111.937 128.938 112.686 129.012 113.432C127.175 110.206 126.226 106.551 126.262 102.84C126.268 102.272 126.243 101.704 126.197 101.137C127.986 104.184 128.924 107.655 128.912 111.188Z" fill="black"/>
<path opacity="0.15" d="M123.892 85.579C122.201 86.1938 120.435 86.5805 118.642 86.7287C118 85.965 117.414 85.1561 116.888 84.3083C119.558 85.2786 121.818 85.6932 123.892 85.579Z" fill="black"/>
<path opacity="0.15" d="M116.692 78.3099C116.401 80.0922 116.342 81.9047 116.517 83.7021C115.622 82.1461 114.934 80.4803 114.47 78.7466L114.395 78.4671L114.684 78.4616C115.356 78.4446 116.026 78.394 116.692 78.3099Z" fill="black"/>
<path opacity="0.15" d="M119.794 58.7337C121.835 56.6813 124.281 55.0763 126.977 54.0212C129.673 52.9661 132.559 52.484 135.452 52.6055C137.29 52.6929 139.127 52.3921 140.841 51.7226C142.555 51.0531 144.109 50.0299 145.402 48.7199L145.584 48.5345C147.276 46.8286 149.171 45.3361 151.226 44.0902L151.383 43.9953L151.508 44.1286C152.697 45.3913 154.045 46.4934 155.519 47.4072C154.481 46.1836 153.641 44.8041 153.032 43.3195L152.949 43.1245L153.138 43.0284C157.26 40.9377 161.818 39.8505 166.44 39.8555C171.062 39.8606 175.617 40.9578 179.734 43.0575C183.851 45.1572 187.413 48.2001 190.129 51.9377C192.846 55.6754 194.64 60.0019 195.365 64.5644C193.65 61.0852 191.262 57.9806 188.338 55.4306C185.414 52.8806 182.013 50.9359 178.332 49.7092C174.651 48.4825 170.763 47.9982 166.893 48.2843C163.024 48.5704 159.249 49.6213 155.789 51.3761L155.599 51.4722L155.683 51.6672C156.292 53.1519 157.131 54.5314 158.17 55.7549C156.696 54.8412 155.347 53.739 154.159 52.4764L154.033 52.343L153.877 52.4379C151.822 53.6838 149.927 55.1763 148.235 56.8822L148.052 57.0676C146.76 58.3777 145.206 59.4008 143.492 60.0703C141.777 60.7398 139.941 61.0406 138.102 60.9532C133.294 60.7466 128.562 62.2134 124.715 65.1036C120.867 67.9939 118.142 72.1286 117.003 76.8027C115.998 76.5601 115.01 76.256 114.043 75.892L113.912 75.8437L113.896 75.7052C113.541 72.6152 113.886 69.4848 114.907 66.5467C115.928 63.6085 117.599 60.938 119.794 58.7337Z" fill="black"/>
<path d="M368.144 -2C367.804 3.25638 366.881 8.4587 365.391 13.5112C362.448 23.538 357.305 32.7825 350.336 40.5716C350.127 40.8036 349.917 41.0356 349.708 41.263C349.499 41.495 349.285 41.7224 349.071 41.9499C348.857 42.1773 348.643 42.4002 348.425 42.6231C348.206 42.846 347.992 43.0688 347.769 43.2917C346.896 44.1742 345.994 45.0293 345.075 45.8618C344.843 46.071 344.611 46.2757 344.379 46.4804C343.682 47.099 342.977 47.6995 342.253 48.2817C342.012 48.4773 341.771 48.6729 341.53 48.8639C341.284 49.055 341.043 49.246 340.797 49.4371C340.551 49.6236 340.306 49.8101 340.06 49.9966C339.564 50.3696 339.063 50.7335 338.563 51.0928C338.349 51.2429 338.139 51.3885 337.925 51.5386C337.375 51.9207 336.824 52.2937 336.264 52.6576C336.037 52.8031 335.809 52.9532 335.582 53.0942C335.513 53.1397 335.445 53.1852 335.377 53.2262C335.154 53.3717 334.926 53.5082 334.699 53.6492C334.439 53.8129 334.175 53.9722 333.907 54.1314C333.379 54.4498 332.846 54.7591 332.309 55.0639C331.763 55.3686 331.217 55.6688 330.667 55.96C330.125 56.2465 329.583 56.5285 329.037 56.7969C328.801 56.9152 328.569 57.0289 328.332 57.1426C328.241 57.1881 328.154 57.229 328.063 57.2745L327.367 57.602C327.089 57.734 326.807 57.8613 326.525 57.9887C326.243 58.1161 325.961 58.2389 325.679 58.3617C325.114 58.6119 324.541 58.8484 323.972 59.0804C323.685 59.1941 323.394 59.3124 323.107 59.4215C322.821 59.5353 322.529 59.6444 322.243 59.7536C321.769 59.931 321.291 60.1039 320.814 60.2676C320.545 60.3677 320.277 60.4586 320.008 60.5451C319.867 60.5906 319.73 60.6406 319.594 60.6861C319.234 60.8044 318.87 60.9226 318.506 61.0318C317.56 61.3275 316.604 61.6049 315.648 61.8597C315.216 61.9779 314.779 62.0871 314.342 62.1963C313.987 62.2827 313.632 62.3646 313.277 62.4464C313.068 62.4965 312.854 62.5465 312.64 62.592C311.771 62.7831 310.901 62.9559 310.023 63.1151C309.682 63.1788 309.345 63.2379 309.004 63.2925C308.922 63.3062 308.844 63.3198 308.767 63.3335C308.353 63.4017 307.934 63.4654 307.515 63.5245L307.324 63.5518C306.965 63.6018 306.605 63.6519 306.246 63.6973C306.105 63.711 305.964 63.7292 305.822 63.7474C305.504 63.7883 305.185 63.8247 304.867 63.8566C304.616 63.8838 304.366 63.9066 304.111 63.9293C303.797 63.9612 303.488 63.9885 303.174 64.0158C302.714 64.0521 302.25 64.084 301.79 64.1113C301.349 64.1386 300.907 64.1613 300.466 64.1795C300.056 64.1977 299.647 64.2113 299.242 64.2204C299.082 64.225 298.928 64.2296 298.773 64.2296C298.35 64.2386 297.926 64.2432 297.508 64.2432C290.755 64.2401 284.037 63.2674 277.561 61.3547C273.747 60.2291 270.032 58.7898 266.456 57.0517C264.586 56.1419 262.714 55.2731 260.84 54.4452C248.725 49.0088 235.947 45.1914 222.834 43.0916C216.265 42.0586 209.628 41.5067 202.978 41.4404C198.297 41.3956 193.645 40.699 189.157 39.3707C188.392 39.1478 187.605 38.8931 186.818 38.6202L185.907 38.3063L186.649 37.6877C188.833 35.8255 191.243 34.2453 193.822 32.9843C189.713 33.6007 185.701 34.7491 181.889 36.4004L181.661 36.5005L181.434 36.3913C173.992 32.7794 167.56 27.3839 162.71 20.6856C157.86 13.9873 154.743 6.19405 153.636 -2H368.144Z" fill="#3F3D56"/>
<g opacity="0.15">
<path opacity="0.15" d="M153.636 -2C154.743 6.19405 157.86 13.9873 162.71 20.6856C167.56 27.3839 173.992 32.7794 181.434 36.3913L181.661 36.5005L181.889 36.4004C185.701 34.7491 189.713 33.6007 193.822 32.9843C191.243 34.2453 188.833 35.8255 186.649 37.6877L185.907 38.3063L186.818 38.6202C187.605 38.8931 188.392 39.1478 189.157 39.3707C193.645 40.699 198.297 41.3956 202.978 41.4404C209.628 41.5067 216.265 42.0586 222.834 43.0916C235.947 45.1914 248.725 49.0088 260.84 54.4452C262.715 55.2731 264.587 56.1419 266.456 57.0517C270.032 58.7898 273.747 60.2291 277.561 61.3547C284.037 63.2674 290.755 64.2401 297.508 64.2432C297.926 64.2432 298.35 64.2386 298.773 64.2296C298.928 64.2296 299.082 64.225 299.242 64.2204C299.647 64.2113 300.056 64.1977 300.466 64.1795C300.907 64.1613 301.349 64.1386 301.79 64.1113C302.25 64.084 302.714 64.0521 303.174 64.0158C303.488 63.9885 303.797 63.9612 304.111 63.9293C304.366 63.9066 304.616 63.8838 304.867 63.8566C305.185 63.8247 305.504 63.7883 305.822 63.7474C305.964 63.7292 306.105 63.711 306.246 63.6973C306.605 63.6519 306.965 63.6018 307.324 63.5518L307.515 63.5245C307.934 63.4654 308.353 63.4017 308.767 63.3335C308.844 63.3198 308.922 63.3062 309.004 63.2925C309.345 63.2379 309.682 63.1788 310.023 63.1151C310.901 62.9559 311.771 62.7831 312.64 62.592C312.854 62.5465 313.068 62.4965 313.277 62.4464C313.632 62.3646 313.987 62.2827 314.342 62.1963C314.779 62.0871 315.216 61.9779 315.648 61.8597C316.604 61.6049 317.56 61.3275 318.506 61.0318C318.87 60.9226 319.234 60.8044 319.594 60.6861C319.73 60.6406 319.867 60.5906 320.008 60.5451C320.277 60.4586 320.545 60.3677 320.814 60.2676C321.291 60.1039 321.769 59.931 322.243 59.7536C322.529 59.6444 322.821 59.5353 323.107 59.4215C323.394 59.3124 323.685 59.1941 323.972 59.0804C324.541 58.8484 325.114 58.6119 325.679 58.3617C325.961 58.2389 326.243 58.1161 326.525 57.9887C326.807 57.8613 327.089 57.734 327.367 57.602L328.063 57.2745C328.154 57.229 328.241 57.1881 328.332 57.1426C328.568 57.0289 328.801 56.9152 329.037 56.7969C329.583 56.5285 330.125 56.2465 330.666 55.96C331.217 55.6688 331.763 55.3686 332.309 55.0639C332.846 54.7591 333.379 54.4498 333.907 54.1314C334.175 53.9722 334.439 53.8129 334.699 53.6492C334.926 53.5082 335.154 53.3717 335.377 53.2262C335.445 53.1852 335.513 53.1397 335.582 53.0942C335.809 52.9532 336.037 52.8031 336.264 52.6576C336.824 52.2937 337.375 51.9207 337.925 51.5386C338.139 51.3885 338.349 51.2429 338.563 51.0928C339.063 50.7335 339.564 50.3696 340.06 49.9966C340.306 49.81 340.551 49.6235 340.797 49.4371C341.043 49.246 341.284 49.055 341.53 48.8639C341.771 48.6729 342.012 48.4773 342.253 48.2817C342.972 47.6949 343.681 47.0945 344.379 46.4804C344.611 46.2757 344.843 46.071 345.075 45.8618C345.994 45.0293 346.895 44.1742 347.769 43.2917C347.992 43.0688 348.206 42.846 348.425 42.6231C348.643 42.4002 348.857 42.1773 349.071 41.9499C349.285 41.7224 349.499 41.495 349.708 41.263C349.917 41.0356 350.127 40.8036 350.336 40.5716C334.674 47.9958 316.822 49.387 300.197 44.4789C296.383 43.3537 292.669 41.9144 289.093 40.1758C279.64 35.5381 269.751 31.8477 259.57 29.1588C248.585 26.2627 237.285 24.7228 225.925 24.5737C225.824 24.5691 225.72 24.5691 225.62 24.5691C220.937 24.5206 216.284 23.8225 211.794 22.4949C211.029 22.272 210.246 22.0173 209.459 21.7444L208.549 21.4305L209.286 20.8119C211.472 18.9496 213.883 17.3694 216.463 16.1085C212.352 16.7249 208.34 17.8732 204.526 19.5246L204.298 19.6247L204.071 19.5155C194.532 14.8851 186.708 7.35273 181.72 -2H153.636Z" fill="black"/>
</g>
<path d="M165.633 223.849L162.768 223.493L162.712 212.036L166.942 212.561L165.633 223.849Z" fill="#FFB8B8"/>
<path d="M181.644 216.654C181.502 216.826 181.359 216.997 181.214 217.168C180.927 217.51 180.635 217.849 180.342 218.185C180.194 218.354 180.045 218.522 179.897 218.689L179.899 218.694L179.888 218.7L179.885 218.703L179.629 218.865L178.874 217.939L178.525 217.513L178.033 216.909L177.131 215.805L172.383 209.989L175.982 207.713L176.33 208.264L176.332 208.263L176.504 208.537L179.731 213.634L180.39 214.677L180.41 214.708L180.806 215.33L181.148 215.869L181.529 216.472L181.644 216.654Z" fill="#FFB8B8"/>
<path d="M197.229 185.46C197.114 185.942 196.992 186.424 196.868 186.904C196.637 187.795 196.39 188.68 196.127 189.559C196.128 189.561 196.126 189.561 196.125 189.564C195.923 189.932 195.679 190.275 195.397 190.587C195.386 190.603 195.373 190.615 195.361 190.629C195.153 190.856 194.917 191.055 194.66 191.224C194.567 191.284 194.472 191.344 194.379 191.403C194.041 191.612 193.703 191.808 193.364 191.994C192.759 192.323 192.15 192.617 191.537 192.878C191.488 192.9 191.438 192.921 191.388 192.942C188.83 193.948 186.149 194.612 183.417 194.915C182.031 195.104 180.602 195.252 179.121 195.406C178.637 195.454 178.152 195.505 177.661 195.558C177.624 195.562 177.585 195.566 177.546 195.57C176.845 195.645 176.133 195.726 175.406 195.813C174.49 195.923 173.55 196.048 172.577 196.193L173.075 197.465C173.462 198.441 173.996 199.353 174.66 200.168C175.141 200.696 175.51 201.317 175.744 201.992C175.979 202.666 176.074 203.382 176.025 204.094L176.014 205.114C176.33 205.514 176.548 205.981 176.653 206.479C176.757 206.977 176.745 207.492 176.617 207.984L176.585 208.102L181.445 213.882L181.759 214.257L180.411 214.708L178.752 215.263L175.941 216.202L169.165 209.421L168.842 209.098L168.835 209.078L164.03 193.305C163.989 193.165 163.953 193.022 163.925 192.878C163.79 192.227 163.786 191.555 163.913 190.901C164.04 190.248 164.296 189.627 164.666 189.074C165.019 188.54 165.475 188.083 166.007 187.727C166.539 187.372 167.137 187.125 167.765 187.003L169.213 186.719L172.173 186.138L174.258 185.73L174.3 185.722L180.448 184.517L180.295 182.652L180.363 182.597L182.541 180.86L190.072 174.851L190.091 174.836L190.587 174.441L190.69 174.527C190.721 174.553 190.752 174.579 190.781 174.606C191.673 175.419 192.48 176.322 193.188 177.299C194.362 178.89 195.445 180.546 196.43 182.26C196.473 182.335 196.512 182.402 196.546 182.464L196.558 182.482C196.574 182.511 196.584 182.529 196.588 182.534C197.076 183.429 197.298 184.444 197.229 185.46Z" fill="#2F2E41"/>
<path d="M195.666 179.578C195.6 179.471 195.526 179.365 195.451 179.262C194.874 178.493 194.255 177.756 193.596 177.055C192.852 176.254 191.882 172.227 191.869 172.216L180.462 176.362L178.671 176.31L179.913 179.626L179.913 179.628L178.393 182.453L178.378 182.456L173.483 183.414L168.438 184.403L165.729 184.934C165.101 185.057 164.503 185.303 163.971 185.659C163.439 186.014 162.983 186.472 162.63 187.006C162.26 187.559 162.004 188.18 161.877 188.833C161.75 189.487 161.754 190.158 161.89 190.81C161.916 190.942 161.949 191.077 161.986 191.207L161.475 197.829C161.169 201.789 161.462 205.773 162.345 209.646L162.467 215.988L162.731 215.926L166.658 215.009L167.695 214.767L168.829 210.797C168.959 210.344 169.071 209.885 169.165 209.422C169.321 208.666 169.428 207.9 169.486 207.129L170.469 194.137C170.86 194.077 171.247 194.015 171.629 193.951C173.399 193.663 175.085 193.346 176.687 193.002C181.268 192.093 185.727 190.652 189.973 188.71C191.016 188.215 192.009 187.69 192.952 187.135C193.298 186.933 193.637 186.726 193.969 186.515C194.048 186.467 194.125 186.419 194.201 186.369C194.886 185.925 195.45 185.317 195.839 184.599C196.228 183.882 196.431 183.078 196.429 182.261C196.436 181.313 196.171 180.382 195.666 179.578Z" fill="#2F2E41"/>
<path d="M165.859 221.9L162.758 221.511L162.271 221.45L162.151 223.317L157.819 225.907C157.604 226.035 157.437 226.228 157.34 226.458C157.243 226.687 157.223 226.942 157.281 227.185C157.34 227.427 157.474 227.645 157.665 227.805C157.856 227.966 158.093 228.061 158.342 228.077L163.534 228.415L164.548 226.627L164.777 228.496L166.733 228.624L166.613 221.995L165.859 221.9Z" fill="#2F2E41"/>
<path d="M181.445 213.882L181.759 214.257L181.589 214.314L181.445 213.882Z" fill="#2F2E41"/>
<path d="M180.689 214.717L178.211 216.623L177.822 216.921L179.051 218.333L177.796 223.22C177.734 223.461 177.75 223.716 177.844 223.948C177.937 224.179 178.101 224.375 178.314 224.506C178.526 224.637 178.775 224.697 179.023 224.677C179.272 224.657 179.508 224.557 179.696 224.394L183.623 220.983L183.084 218.999L184.563 220.166L186.043 218.881L181.291 214.255L180.689 214.717Z" fill="#2F2E41"/>
<path d="M202.407 145.082C202.227 145.337 202.105 145.627 202.049 145.934C201.994 146.24 202.006 146.555 202.085 146.857C202.164 147.158 202.309 147.438 202.508 147.678C202.708 147.917 202.957 148.11 203.239 148.243L202.438 155.773L205.936 153.966L206.16 147.092C206.352 146.604 206.358 146.062 206.176 145.57C205.995 145.077 205.639 144.669 205.177 144.421C204.714 144.173 204.177 144.104 203.666 144.226C203.156 144.348 202.708 144.652 202.407 145.082Z" fill="#FFB8B8"/>
<path d="M185.311 154.949C185.785 155.854 186.375 156.692 187.068 157.442C189.061 159.571 195.396 164.02 199.547 166.167C201.408 167.126 202.732 167.477 203.233 167.249C205.625 166.161 207.785 148.258 206.433 148.108L202.792 151.292V152.202L201.14 159.489C201.14 159.489 200.771 159.043 200.143 158.329C198.095 156.014 194.614 151.738 190.504 149.928C189.216 152.288 185.562 154.667 185.562 154.667C185.562 154.667 185.466 154.767 185.311 154.949Z" fill="#CCF8EB"/>
<path d="M182.54 199.054H195.198L195.277 198.461L208.036 101.963C208.208 100.661 207.991 99.3368 207.412 98.1578C206.834 96.9788 205.919 95.9973 204.783 95.3367C203.648 94.6761 202.342 94.3659 201.03 94.4453C199.719 94.5246 198.46 94.9899 197.413 95.7826L198.237 96.8701C199.07 96.24 200.071 95.8702 201.113 95.8072C202.156 95.7442 203.194 95.9909 204.097 96.5162C205 97.0414 205.727 97.8218 206.187 98.7591C206.647 99.6965 206.819 100.749 206.683 101.784L194.001 197.689H182.54V199.054Z" fill="#3F3D56"/>
<path d="M50.9048 64.2223C44.1936 64.2223 38.7532 58.7845 38.7532 52.0768C38.7532 45.369 44.1936 39.9313 50.9048 39.9313C57.6159 39.9313 63.0564 45.369 63.0564 52.0768C63.0564 58.7845 57.6159 64.2223 50.9048 64.2223Z" fill="#FD6584"/>
<path d="M23.7086 46.3257C24.0513 45.2026 24.7152 44.2042 25.6184 43.4534C26.5216 42.7025 27.6248 42.2321 28.7921 42.1C28.8194 42.0977 28.8468 42.0977 28.874 42.1C28.9067 42.0897 28.9402 42.0821 28.9742 42.0772C33.0428 41.5496 37.5665 42.8323 40.6112 45.6252C41.7414 46.6457 42.6453 47.8915 43.2644 49.2824C43.8288 48.5119 44.5727 47.8905 45.4315 47.472C46.2903 47.0535 47.2382 46.8505 48.1932 46.8807C49.4248 46.9621 50.6013 47.4211 51.5623 48.1953C52.5234 48.9694 53.2222 50.0209 53.5634 51.2065C53.6009 51.3514 53.5906 51.5045 53.534 51.643C53.4775 51.7815 53.3776 51.8981 53.2494 51.9753C52.8834 52.2882 52.4482 52.5096 51.9796 52.6212C50.9739 52.835 49.959 53.0306 48.9441 53.208C46.9599 53.5537 44.965 53.8342 42.9595 54.0495C41.6351 54.1905 40.3077 54.3027 38.9773 54.3861C36.2285 54.5589 33.466 54.5999 30.7127 54.5135C29.3473 54.468 28.0366 54.4225 26.7897 53.8221C25.881 53.3754 25.1045 52.6997 24.5369 51.8616C24.0025 51.0554 23.6514 50.1419 23.5083 49.1855C23.3652 48.2291 23.4336 47.2529 23.7086 46.3257Z" fill="#E6E6E6"/>
<path d="M48.7076 64.0203C48.7306 63.5114 48.8162 63.0072 48.9625 62.5192C49.3068 61.3962 49.9717 60.3981 50.8755 59.6474C51.7794 58.8968 52.8828 58.4262 54.0505 58.2935C54.0762 58.2912 54.1021 58.2912 54.1279 58.2935C54.1623 58.2837 54.1972 58.2761 54.2325 58.2707C56.4844 57.995 58.7694 58.2298 60.918 58.9576C64.222 60.0629 67.121 62.2918 68.5182 65.4759C69.0832 64.7049 69.8278 64.0832 70.6874 63.6647C71.5471 63.2462 72.4958 63.0435 73.4515 63.0742C74.6831 63.1555 75.8597 63.6146 76.8207 64.3887C77.7817 65.1629 78.4805 66.2144 78.8217 67.4C78.8571 67.5449 78.8458 67.6972 78.7894 67.8353C78.733 67.9733 78.6344 68.0901 78.5077 68.1688C78.1411 68.4808 77.7061 68.7021 77.238 68.8147C76.2276 69.0285 75.2173 69.2241 74.1979 69.4015C72.2136 69.7472 70.2203 70.0277 68.2178 70.243C64.1496 70.6795 60.0561 70.8345 55.9665 70.7069C54.6057 70.6615 53.2905 70.616 52.0435 70.0155C51.1362 69.5687 50.3612 68.893 49.7953 68.055C48.9975 66.8668 48.6151 65.4483 48.7076 64.0203Z" fill="#E6E6E6"/>
<path d="M44.1964 93.6988C44.3415 94.3317 44.2397 94.9961 43.9118 95.5566C43.7199 95.8416 43.4386 96.0548 43.1123 96.1627C42.7859 96.2706 42.433 96.267 42.1089 96.1527C40.836 95.7577 39.5801 95.2951 38.3181 94.8664C38.1458 94.8148 38.0001 94.6987 37.9113 94.5423C37.8225 94.386 37.7974 94.2015 37.8413 94.0271C37.8909 93.8536 38.0066 93.7064 38.1637 93.6173C38.3207 93.5282 38.5065 93.5042 38.681 93.5506L41.8348 94.6217C42.0727 94.7025 42.3097 94.7944 42.5522 94.8607C42.5775 94.8677 42.6701 94.888 42.6651 94.8876C42.6535 94.8865 42.5816 94.8942 42.6614 94.8886C42.7069 94.875 42.7066 94.8779 42.6605 94.8976L42.7208 94.8633C42.6657 94.9091 42.7274 94.8572 42.7464 94.8379C42.7631 94.821 42.8123 94.7533 42.7743 94.8089C42.8017 94.7692 42.8256 94.7273 42.8458 94.6835C42.8125 94.7573 42.875 94.5749 42.8795 94.5497C42.905 94.2652 42.8887 93.9786 42.8311 93.6988C42.8319 93.5181 42.9041 93.3451 43.032 93.2173C43.1598 93.0896 43.3329 93.0174 43.5137 93.0165C43.6934 93.021 43.8644 93.0943 43.9915 93.2213C44.1186 93.3483 44.1919 93.5193 44.1964 93.6988Z" fill="#3F3D56"/>
<path d="M95.0229 96.0947L91.6583 100.335C91.2301 100.875 90.3122 100.291 90.5173 99.6713C90.9367 98.4048 89.489 97.6991 88.4897 97.4905C87.1639 97.2138 85.8335 97.2587 84.5754 96.6892C83.7763 96.3274 84.4695 95.151 85.2645 95.5109C86.7362 96.1771 88.4521 95.8717 89.9423 96.5197C91.2743 97.099 92.3274 98.5435 91.8338 100.034L90.6928 99.3702L94.0575 95.1298C94.1861 95.0029 94.3596 94.9319 94.5402 94.9319C94.7209 94.9319 94.8943 95.0029 95.0229 95.1298C95.1472 95.2597 95.2166 95.4325 95.2166 95.6122C95.2166 95.792 95.1472 95.9648 95.0229 96.0947L95.0229 96.0947Z" fill="#3F3D56"/>
<path d="M101.849 46.5135L98.4848 50.7539C98.0567 51.2935 97.1388 50.7094 97.3439 50.0901C97.7633 48.8236 96.3156 48.1179 95.3163 47.9093C93.9904 47.6326 92.6601 47.6775 91.402 47.108C90.6029 46.7462 91.2961 45.5698 92.0911 45.9297C93.5628 46.5959 95.2787 46.2905 96.7689 46.9386C98.1008 47.5178 99.154 48.9623 98.6604 50.4528L97.5194 49.789L100.884 45.5486C101.013 45.4218 101.186 45.3507 101.367 45.3507C101.547 45.3507 101.721 45.4218 101.849 45.5486C101.974 45.6785 102.043 45.8513 102.043 46.031C102.043 46.2108 101.974 46.3836 101.849 46.5135L101.849 46.5135Z" fill="#3F3D56"/>
</svg>
